<svg xmlns="http://www.w3.org/2000/svg" xmlns:xlink="http://www.w3.org/1999/xlink" contentStyleType="text/css" data-diagram-type="CLASS" height="762px" preserveAspectRatio="none" style="width:808px;height:762px;background:#FFFFFF;" version="1.1" viewBox="0 0 808 762" width="808px" zoomAndPan="magnify"><defs/><g><!--class Cliente--><g class="entity" data-entity="Cliente" data-source-line="2" data-uid="ent0002" id="entity_Cliente"><rect fill="#F1F1F1" height="113.1875" rx="2.5" ry="2.5" style="stroke:#181818;stroke-width:0.5;" width="193.0703" x="204" y="7"/><ellipse cx="271.7134" cy="23" fill="#ADD1B2" rx="11" ry="11" style="stroke:#181818;stroke-width:1;"/><path d="M274.6821,28.6406 Q274.104,28.9375 273.4634,29.0781 Q272.8228,29.2344 272.1196,29.2344 Q269.6196,29.2344 268.2915,27.5938 Q266.979,25.9375 266.979,22.8125 Q266.979,19.6875 268.2915,18.0313 Q269.6196,16.375 272.1196,16.375 Q272.8228,16.375 273.4634,16.5313 Q274.1196,16.6875 274.6821,16.9844 L274.6821,19.7031 Q274.0571,19.125 273.4634,18.8594 Q272.8696,18.5781 272.2446,18.5781 Q270.9009,18.5781 270.2134,19.6563 Q269.5259,20.7188 269.5259,22.8125 Q269.5259,24.9063 270.2134,25.9844 Q270.9009,27.0469 272.2446,27.0469 Q272.8696,27.0469 273.4634,26.7813 Q274.0571,26.5 274.6821,25.9219 L274.6821,28.6406 Z " fill="#000000"/><text fill="#000000" font-family="sans-serif" font-size="14" lengthAdjust="spacing" textLength="49.1436" x="292.2134" y="27.8467">Cliente</text><line style="stroke:#181818;stroke-width:0.5;" x1="205" x2="396.0703" y1="39" y2="39"/><rect fill="none" height="6" style="stroke:#C82930;stroke-width:1;" width="6" x="212" y="49.6484"/><text fill="#000000" font-family="sans-serif" font-size="14" lengthAdjust="spacing" textLength="40.1953" x="224" y="55.9951">id: int</text><rect fill="none" height="6" style="stroke:#C82930;stroke-width:1;" width="6" x="212" y="65.9453"/><text fill="#000000" font-family="sans-serif" font-size="14" lengthAdjust="spacing" textLength="105.2803" x="224" y="72.292">nombre: String</text><rect fill="none" height="6" style="stroke:#C82930;stroke-width:1;" width="6" x="212" y="82.2422"/><text fill="#000000" font-family="sans-serif" font-size="14" lengthAdjust="spacing" textLength="95.9014" x="224" y="88.5889">correo: String</text><line style="stroke:#181818;stroke-width:0.5;" x1="205" x2="396.0703" y1="95.8906" y2="95.8906"/><ellipse cx="215" cy="109.5391" fill="#84BE84" rx="3" ry="3" style="stroke:#038048;stroke-width:1;"/><text fill="#000000" font-family="sans-serif" font-size="14" lengthAdjust="spacing" textLength="167.0703" x="224" y="112.8857">realizarPedido(): Pedido</text></g><!--class Producto--><g class="entity" data-entity="Producto" data-source-line="10" data-uid="ent0003" id="entity_Producto"><rect fill="#F1F1F1" height="145.7813" rx="2.5" ry="2.5" style="stroke:#181818;stroke-width:0.5;" width="271.4443" x="7" y="610"/><ellipse cx="107.3345" cy="626" fill="#ADD1B2" rx="11" ry="11" style="stroke:#181818;stroke-width:1;"/><path d="M110.3032,631.6406 Q109.7251,631.9375 109.0845,632.0781 Q108.4438,632.2344 107.7407,632.2344 Q105.2407,632.2344 103.9126,630.5938 Q102.6001,628.9375 102.6001,625.8125 Q102.6001,622.6875 103.9126,621.0313 Q105.2407,619.375 107.7407,619.375 Q108.4438,619.375 109.0845,619.5313 Q109.7407,619.6875 110.3032,619.9844 L110.3032,622.7031 Q109.6782,622.125 109.0845,621.8594 Q108.4907,621.5781 107.8657,621.5781 Q106.522,621.5781 105.8345,622.6563 Q105.147,623.7188 105.147,625.8125 Q105.147,627.9063 105.8345,628.9844 Q106.522,630.0469 107.8657,630.0469 Q108.4907,630.0469 109.0845,629.7813 Q109.6782,629.5 110.3032,628.9219 L110.3032,631.6406 Z " fill="#000000"/><text fill="#000000" font-family="sans-serif" font-size="14" lengthAdjust="spacing" textLength="62.2754" x="127.8345" y="630.8467">Producto</text><line style="stroke:#181818;stroke-width:0.5;" x1="8" x2="277.4443" y1="642" y2="642"/><rect fill="none" height="6" style="stroke:#C82930;stroke-width:1;" width="6" x="15" y="652.6484"/><text fill="#000000" font-family="sans-serif" font-size="14" lengthAdjust="spacing" textLength="40.1953" x="27" y="658.9951">id: int</text><rect fill="none" height="6" style="stroke:#C82930;stroke-width:1;" width="6" x="15" y="668.9453"/><text fill="#000000" font-family="sans-serif" font-size="14" lengthAdjust="spacing" textLength="105.2803" x="27" y="675.292">nombre: String</text><rect fill="none" height="6" style="stroke:#C82930;stroke-width:1;" width="6" x="15" y="685.2422"/><text fill="#000000" font-family="sans-serif" font-size="14" lengthAdjust="spacing" textLength="100.29" x="27" y="691.5889">precio: double</text><rect fill="none" height="6" style="stroke:#C82930;stroke-width:1;" width="6" x="15" y="701.5391"/><text fill="#000000" font-family="sans-serif" font-size="14" lengthAdjust="spacing" textLength="64.5723" x="27" y="707.8857">stock: int</text><line style="stroke:#181818;stroke-width:0.5;" x1="8" x2="277.4443" y1="715.1875" y2="715.1875"/><ellipse cx="18" cy="728.8359" fill="#84BE84" rx="3" ry="3" style="stroke:#038048;stroke-width:1;"/><text fill="#000000" font-family="sans-serif" font-size="14" lengthAdjust="spacing" textLength="175.7861" x="27" y="732.1826">consultarPrecio(): double</text><ellipse cx="18" cy="745.1328" fill="#84BE84" rx="3" ry="3" style="stroke:#038048;stroke-width:1;"/><text fill="#000000" font-family="sans-serif" font-size="14" lengthAdjust="spacing" textLength="245.4443" x="27" y="748.4795">actualizarStock(cantidad: int): void</text></g><!--class Pedido--><g class="entity" data-entity="Pedido" data-source-line="20" data-uid="ent0004" id="entity_Pedido"><rect fill="#F1F1F1" height="162.0781" rx="2.5" ry="2.5" style="stroke:#181818;stroke-width:0.5;" width="424.4121" x="88.5" y="197"/><ellipse cx="272.814" cy="213" fill="#ADD1B2" rx="11" ry="11" style="stroke:#181818;stroke-width:1;"/><path d="M275.7827,218.6406 Q275.2046,218.9375 274.564,219.0781 Q273.9233,219.2344 273.2202,219.2344 Q270.7202,219.2344 269.3921,217.5938 Q268.0796,215.9375 268.0796,212.8125 Q268.0796,209.6875 269.3921,208.0313 Q270.7202,206.375 273.2202,206.375 Q273.9233,206.375 274.564,206.5313 Q275.2202,206.6875 275.7827,206.9844 L275.7827,209.7031 Q275.1577,209.125 274.564,208.8594 Q273.9702,208.5781 273.3452,208.5781 Q272.0015,208.5781 271.314,209.6563 Q270.6265,210.7188 270.6265,212.8125 Q270.6265,214.9063 271.314,215.9844 Q272.0015,217.0469 273.3452,217.0469 Q273.9702,217.0469 274.564,216.7813 Q275.1577,216.5 275.7827,215.9219 L275.7827,218.6406 Z " fill="#000000"/><text fill="#000000" font-family="sans-serif" font-size="14" lengthAdjust="spacing" textLength="47.2842" x="293.314" y="217.8467">Pedido</text><line style="stroke:#181818;stroke-width:0.5;" x1="89.5" x2="511.9121" y1="229" y2="229"/><rect fill="none" height="6" style="stroke:#C82930;stroke-width:1;" width="6" x="96.5" y="239.6484"/><text fill="#000000" font-family="sans-serif" font-size="14" lengthAdjust="spacing" textLength="40.1953" x="108.5" y="245.9951">id: int</text><rect fill="none" height="6" style="stroke:#C82930;stroke-width:1;" width="6" x="96.5" y="255.9453"/><text fill="#000000" font-family="sans-serif" font-size="14" lengthAdjust="spacing" textLength="81.3203" x="108.5" y="262.292">fecha: Date</text><rect fill="none" height="6" style="stroke:#C82930;stroke-width:1;" width="6" x="96.5" y="272.2422"/><text fill="#000000" font-family="sans-serif" font-size="14" lengthAdjust="spacing" textLength="98.376" x="108.5" y="278.5889">estado: String</text><rect fill="none" height="6" style="stroke:#C82930;stroke-width:1;" width="6" x="96.5" y="288.5391"/><text fill="#000000" font-family="sans-serif" font-size="14" lengthAdjust="spacing" textLength="88.8945" x="108.5" y="294.8857">total: double</text><line style="stroke:#181818;stroke-width:0.5;" x1="89.5" x2="511.9121" y1="302.1875" y2="302.1875"/><ellipse cx="99.5" cy="315.8359" fill="#84BE84" rx="3" ry="3" style="stroke:#038048;stroke-width:1;"/><text fill="#000000" font-family="sans-serif" font-size="14" lengthAdjust="spacing" textLength="398.4121" x="108.5" y="319.1826">agregarProducto(producto: Producto, cantidad: int): void</text><ellipse cx="99.5" cy="332.1328" fill="#84BE84" rx="3" ry="3" style="stroke:#038048;stroke-width:1;"/><text fill="#000000" font-family="sans-serif" font-size="14" lengthAdjust="spacing" textLength="157.8418" x="108.5" y="335.4795">calcularTotal(): double</text><ellipse cx="99.5" cy="348.4297" fill="#84BE84" rx="3" ry="3" style="stroke:#038048;stroke-width:1;"/><text fill="#000000" font-family="sans-serif" font-size="14" lengthAdjust="spacing" textLength="252.7793" x="108.5" y="351.7764">cambiarEstado(estado: String): void</text></g><!--class DetallePedido--><g class="entity" data-entity="DetallePedido" data-source-line="31" data-uid="ent0005" id="entity_DetallePedido"><rect fill="#F1F1F1" height="96.8906" rx="2.5" ry="2.5" style="stroke:#181818;stroke-width:0.5;" width="207.4258" x="197" y="436"/><ellipse cx="247.8936" cy="452" fill="#ADD1B2" rx="11" ry="11" style="stroke:#181818;stroke-width:1;"/><path d="M250.8623,457.6406 Q250.2842,457.9375 249.6436,458.0781 Q249.0029,458.2344 248.2998,458.2344 Q245.7998,458.2344 244.4717,456.5938 Q243.1592,454.9375 243.1592,451.8125 Q243.1592,448.6875 244.4717,447.0313 Q245.7998,445.375 248.2998,445.375 Q249.0029,445.375 249.6436,445.5313 Q250.2998,445.6875 250.8623,445.9844 L250.8623,448.7031 Q250.2373,448.125 249.6436,447.8594 Q249.0498,447.5781 248.4248,447.5781 Q247.0811,447.5781 246.3936,448.6563 Q245.7061,449.7188 245.7061,451.8125 Q245.7061,453.9063 246.3936,454.9844 Q247.0811,456.0469 248.4248,456.0469 Q249.0498,456.0469 249.6436,455.7813 Q250.2373,455.5 250.8623,454.9219 L250.8623,457.6406 Z " fill="#000000"/><text fill="#000000" font-family="sans-serif" font-size="14" lengthAdjust="spacing" textLength="97.1387" x="268.3936" y="456.8467">DetallePedido</text><line style="stroke:#181818;stroke-width:0.5;" x1="198" x2="403.4258" y1="468" y2="468"/><rect fill="none" height="6" style="stroke:#C82930;stroke-width:1;" width="6" x="205" y="478.6484"/><text fill="#000000" font-family="sans-serif" font-size="14" lengthAdjust="spacing" textLength="88.2998" x="217" y="484.9951">cantidad: int</text><rect fill="none" height="6" style="stroke:#C82930;stroke-width:1;" width="6" x="205" y="494.9453"/><text fill="#000000" font-family="sans-serif" font-size="14" lengthAdjust="spacing" textLength="155.5791" x="217" y="501.292">precioUnitario: double</text><line style="stroke:#181818;stroke-width:0.5;" x1="198" x2="403.4258" y1="508.5938" y2="508.5938"/><ellipse cx="208" cy="522.2422" fill="#84BE84" rx="3" ry="3" style="stroke:#038048;stroke-width:1;"/><text fill="#000000" font-family="sans-serif" font-size="14" lengthAdjust="spacing" textLength="181.4258" x="217" y="525.5889">calcularSubtotal(): double</text></g><!--class Pago--><g class="entity" data-entity="Pago" data-source-line="38" data-uid="ent0006" id="entity_Pago"><rect fill="#F1F1F1" height="96.8906" rx="2.5" ry="2.5" style="stroke:#181818;stroke-width:0.5;" width="197.6846" x="439.5" y="436"/><ellipse cx="516.8555" cy="452" fill="#A9DCDF" rx="11" ry="11" style="stroke:#181818;stroke-width:1;"/><path d="M516.9648,447.3438 L515.8086,452.4219 L518.1367,452.4219 L516.9648,447.3438 Z M515.4805,445.1094 L518.4648,445.1094 L521.8242,457.5 L519.3711,457.5 L518.6055,454.4375 L515.3242,454.4375 L514.5742,457.5 L512.1367,457.5 L515.4805,445.1094 Z " fill="#000000"/><text fill="#000000" font-family="sans-serif" font-size="14" font-style="italic" lengthAdjust="spacing" textLength="34.4736" x="537.3555" y="456.8467">Pago</text><line style="stroke:#181818;stroke-width:0.5;" x1="440.5" x2="636.1846" y1="468" y2="468"/><rect fill="none" height="6" style="stroke:#C82930;stroke-width:1;" width="6" x="447.5" y="478.6484"/><text fill="#000000" font-family="sans-serif" font-size="14" lengthAdjust="spacing" textLength="40.1953" x="459.5" y="484.9951">id: int</text><rect fill="none" height="6" style="stroke:#C82930;stroke-width:1;" width="6" x="447.5" y="494.9453"/><text fill="#000000" font-family="sans-serif" font-size="14" lengthAdjust="spacing" textLength="102.0127" x="459.5" y="501.292">monto: double</text><line style="stroke:#181818;stroke-width:0.5;" x1="440.5" x2="636.1846" y1="508.5938" y2="508.5938"/><ellipse cx="450.5" cy="522.2422" fill="#84BE84" rx="3" ry="3" style="stroke:#038048;stroke-width:1;"/><text fill="#000000" font-family="sans-serif" font-size="14" lengthAdjust="spacing" textLength="171.6846" x="459.5" y="525.5889">procesarPago(): boolean</text></g><!--class PagoTarjeta--><g class="entity" data-entity="PagoTarjeta" data-source-line="45" data-uid="ent0007" id="entity_PagoTarjeta"><rect fill="#F1F1F1" height="80.5938" rx="2.5" ry="2.5" style="stroke:#181818;stroke-width:0.5;" width="197.6846" x="340.5" y="642.5"/><ellipse cx="393.1265" cy="658.5" fill="#ADD1B2" rx="11" ry="11" style="stroke:#181818;stroke-width:1;"/><path d="M396.0952,664.1406 Q395.5171,664.4375 394.8765,664.5781 Q394.2358,664.7344 393.5327,664.7344 Q391.0327,664.7344 389.7046,663.0938 Q388.3921,661.4375 388.3921,658.3125 Q388.3921,655.1875 389.7046,653.5313 Q391.0327,651.875 393.5327,651.875 Q394.2358,651.875 394.8765,652.0313 Q395.5327,652.1875 396.0952,652.4844 L396.0952,655.2031 Q395.4702,654.625 394.8765,654.3594 Q394.2827,654.0781 393.6577,654.0781 Q392.314,654.0781 391.6265,655.1563 Q390.939,656.2188 390.939,658.3125 Q390.939,660.4063 391.6265,661.4844 Q392.314,662.5469 393.6577,662.5469 Q394.2827,662.5469 394.8765,662.2813 Q395.4702,662 396.0952,661.4219 L396.0952,664.1406 Z " fill="#000000"/><text fill="#000000" font-family="sans-serif" font-size="14" lengthAdjust="spacing" textLength="83.9316" x="413.6265" y="663.3467">PagoTarjeta</text><line style="stroke:#181818;stroke-width:0.5;" x1="341.5" x2="537.1846" y1="674.5" y2="674.5"/><rect fill="none" height="6" style="stroke:#C82930;stroke-width:1;" width="6" x="348.5" y="685.1484"/><text fill="#000000" font-family="sans-serif" font-size="14" lengthAdjust="spacing" textLength="154.7246" x="360.5" y="691.4951">numeroTarjeta: String</text><line style="stroke:#181818;stroke-width:0.5;" x1="341.5" x2="537.1846" y1="698.7969" y2="698.7969"/><ellipse cx="351.5" cy="712.4453" fill="#84BE84" rx="3" ry="3" style="stroke:#038048;stroke-width:1;"/><text fill="#000000" font-family="sans-serif" font-size="14" lengthAdjust="spacing" textLength="171.6846" x="360.5" y="715.792">procesarPago(): boolean</text></g><!--class PagoTransferencia--><g class="entity" data-entity="PagoTransferencia" data-source-line="51" data-uid="ent0008" id="entity_PagoTransferencia"><rect fill="#F1F1F1" height="96.8906" rx="2.5" ry="2.5" style="stroke:#181818;stroke-width:0.5;" width="227.2705" x="574" y="634.5"/><ellipse cx="618.1568" cy="650.5" fill="#ADD1B2" rx="11" ry="11" style="stroke:#181818;stroke-width:1;"/><path d="M621.1256,656.1406 Q620.5475,656.4375 619.9068,656.5781 Q619.2662,656.7344 618.5631,656.7344 Q616.0631,656.7344 614.735,655.0938 Q613.4225,653.4375 613.4225,650.3125 Q613.4225,647.1875 614.735,645.5313 Q616.0631,643.875 618.5631,643.875 Q619.2662,643.875 619.9068,644.0313 Q620.5631,644.1875 621.1256,644.4844 L621.1256,647.2031 Q620.5006,646.625 619.9068,646.3594 Q619.3131,646.0781 618.6881,646.0781 Q617.3443,646.0781 616.6568,647.1563 Q615.9693,648.2188 615.9693,650.3125 Q615.9693,652.4063 616.6568,653.4844 Q617.3443,654.5469 618.6881,654.5469 Q619.3131,654.5469 619.9068,654.2813 Q620.5006,654 621.1256,653.4219 L621.1256,656.1406 Z " fill="#000000"/><text fill="#000000" font-family="sans-serif" font-size="14" lengthAdjust="spacing" textLength="130.4775" x="638.6361" y="655.3467">PagoTransferencia</text><line style="stroke:#181818;stroke-width:0.5;" x1="575" x2="800.2705" y1="666.5" y2="666.5"/><rect fill="none" height="6" style="stroke:#C82930;stroke-width:1;" width="6" x="582" y="677.1484"/><text fill="#000000" font-family="sans-serif" font-size="14" lengthAdjust="spacing" textLength="93.5498" x="594" y="683.4951">banco: String</text><rect fill="none" height="6" style="stroke:#C82930;stroke-width:1;" width="6" x="582" y="693.4453"/><text fill="#000000" font-family="sans-serif" font-size="14" lengthAdjust="spacing" textLength="201.2705" x="594" y="699.792">numeroTransferencia: String</text><line style="stroke:#181818;stroke-width:0.5;" x1="575" x2="800.2705" y1="707.0938" y2="707.0938"/><ellipse cx="585" cy="720.7422" fill="#84BE84" rx="3" ry="3" style="stroke:#038048;stroke-width:1;"/><text fill="#000000" font-family="sans-serif" font-size="14" lengthAdjust="spacing" textLength="171.6846" x="594" y="724.0889">procesarPago(): boolean</text></g><!--link Cliente to Pedido--><g class="link" data-entity-1="Cliente" data-entity-2="Pedido" data-source-line="58" data-uid="lnk9" id="link_Cliente_Pedido"><path codeLine="58" d="M300.5,120.05 C300.5,143.54 300.5,165.35 300.5,190.98" fill="none" id="Cliente-to-Pedido" style="stroke:#181818;stroke-width:1;"/><polygon fill="#181818" points="300.5,196.98,304.5,187.98,300.5,191.98,296.5,187.98,300.5,196.98" style="stroke:#181818;stroke-width:1;"/><text fill="#000000" font-family="sans-serif" font-size="13" lengthAdjust="spacing" textLength="43.3228" x="301.5" y="163.0669">realiza</text><text fill="#000000" font-family="sans-serif" font-size="13" lengthAdjust="spacing" textLength="8.271" x="292.0004" y="140.3198">1</text><text fill="#000000" font-family="sans-serif" font-size="13" lengthAdjust="spacing" textLength="23.0356" x="276.4225" y="185.889">0..*</text></g><!--link Pedido to DetallePedido--><g class="link" data-entity-1="Pedido" data-entity-2="DetallePedido" data-source-line="60" data-uid="lnk10" id="link_Pedido_DetallePedido"><path codeLine="60" d="M300.5,359.24 C300.5,385.2 300.5,407.15 300.5,429.95" fill="none" id="Pedido-to-DetallePedido" style="stroke:#181818;stroke-width:1;"/><polygon fill="#181818" points="300.5,435.95,304.5,426.95,300.5,430.95,296.5,426.95,300.5,435.95" style="stroke:#181818;stroke-width:1;"/><text fill="#000000" font-family="sans-serif" font-size="13" lengthAdjust="spacing" textLength="56.2847" x="301.5" y="402.0669">contiene</text><text fill="#000000" font-family="sans-serif" font-size="13" lengthAdjust="spacing" textLength="8.271" x="292.1375" y="379.2127">1</text><text fill="#000000" font-family="sans-serif" font-size="13" lengthAdjust="spacing" textLength="23.0356" x="275.7823" y="424.8023">1..*</text></g><!--link DetallePedido to Producto--><g class="link" data-entity-1="DetallePedido" data-entity-2="Producto" data-source-line="62" data-uid="lnk11" id="link_DetallePedido_Producto"><path codeLine="62" d="M262.25,533.07 C243.71,556.12 224.8097,579.6341 204.2097,605.2541" fill="none" id="DetallePedido-to-Producto" style="stroke:#181818;stroke-width:1;"/><polygon fill="#181818" points="200.45,609.93,209.2069,605.4226,203.5831,606.0334,202.9723,600.4096,200.45,609.93" style="stroke:#181818;stroke-width:1;"/><text fill="#000000" font-family="sans-serif" font-size="13" lengthAdjust="spacing" textLength="93.355" x="237.5" y="576.0669">corresponde a</text><text fill="#000000" font-family="sans-serif" font-size="13" lengthAdjust="spacing" textLength="23.0356" x="232.2265" y="553.0388">0..*</text><text fill="#000000" font-family="sans-serif" font-size="13" lengthAdjust="spacing" textLength="8.271" x="198.0047" y="598.7062">1</text></g><!--link Pedido to Pago--><g class="link" data-entity-1="Pedido" data-entity-2="Pago" data-source-line="64" data-uid="lnk12" id="link_Pedido_Pago"><path codeLine="64" d="M393.88,359.24 C424.09,385.2 452.0688,409.2402 478.6088,432.0402" fill="none" id="Pedido-to-Pago" style="stroke:#181818;stroke-width:1;"/><polygon fill="#181818" points="483.16,435.95,478.9398,427.0511,479.3674,432.6918,473.7267,433.1194,483.16,435.95" style="stroke:#181818;stroke-width:1;"/><text fill="#000000" font-family="sans-serif" font-size="13" lengthAdjust="spacing" textLength="32.9443" x="449.5" y="402.0669">tiene</text><text fill="#000000" font-family="sans-serif" font-size="13" lengthAdjust="spacing" textLength="8.271" x="393.8341" y="379.2127">1</text><text fill="#000000" font-family="sans-serif" font-size="13" lengthAdjust="spacing" textLength="24.8066" x="449.3518" y="424.8023">0..1</text></g><!--link Pedido to Producto--><g class="link" data-entity-1="Pedido" data-entity-2="Producto" data-source-line="66" data-uid="lnk13" id="link_Pedido_Producto"><path codeLine="66" d="M206.99,359.14 C186.45,381.79 167.33,407.97 155.5,436 C132.27,491.07 130.1516,553.3319 133.3516,603.9719" fill="none" id="Pedido-to-Producto" style="stroke:#181818;stroke-width:1;stroke-dasharray:7,7;"/><polygon fill="#181818" points="133.73,609.96,137.1544,600.7257,133.4147,604.97,129.1704,601.2302,133.73,609.96" style="stroke:#181818;stroke-width:1;"/><text fill="#000000" font-family="sans-serif" font-size="13" lengthAdjust="spacing" textLength="22.9785" x="156.5" y="489.0669">usa</text></g><!--reverse link Pago to PagoTarjeta--><g class="link" data-entity-1="Pago" data-entity-2="PagoTarjeta" data-source-line="68" data-uid="lnk14" id="link_Pago_PagoTarjeta"><path codeLine="68" d="M506.4303,549.1447 C489.5503,582.6447 475.32,610.91 459.41,642.48" fill="none" id="Pago-backto-PagoTarjeta" style="stroke:#181818;stroke-width:1;"/><polygon fill="none" points="514.53,533.07,501.0721,546.4448,511.7885,551.8446,514.53,533.07" style="stroke:#181818;stroke-width:1;"/></g><!--reverse link Pago to PagoTransferencia--><g class="link" data-entity-1="Pago" data-entity-2="PagoTransferencia" data-source-line="69" data-uid="lnk15" id="link_Pago_PagoTransferencia"><path codeLine="69" d="M585.4462,547.4125 C608.6962,578.0725 627.96,603.47 651.25,634.19" fill="none" id="Pago-backto-PagoTransferencia" style="stroke:#181818;stroke-width:1;"/><polygon fill="none" points="574.57,533.07,580.6653,551.0379,590.227,543.7871,574.57,533.07" style="stroke:#181818;stroke-width:1;"/></g><!--SRC=[ZLExSeCm4Epv2WsLyy0Jjqp6JPpUCtO-u93EZX8XUIIH8ez_pma98WY5gU3OsztRaxW2vzYJagWzig-2qLD9KJEfVVpGfcqirkpWhTJdMEF6MZHZhI_UMGGbFy7kKKXXLZSrYs_5Jr7mNcPlZUYuDrVhN2noIJh2T8t2M7FUyFVO5tMvqQvJdeHxT13Ey7V0VHUD7KBdYeFsKa2K9ko7aIAps5jUD7X2_Wersu5FJj1v46Rgs1iFQZIG79mjdeEzEFtgabxgCP1xjkWgZWUATmhiCJ3FX-FGDXBiS-zaDJNqRxOT4eF2wOWJuJpr5oqfqopzgPr3r_YP8nA2ndbBYREK9foNisoDzdDcYeMZevoeAR0snYW4dUs6VXp1lj4O0wdkMhH3SNOUh-EpeDq9BMekHzO6D9_jDGdbwElbXkjLRafMLLjMFgpNj-LmrcgMRavHfCg8s_IuwTvgHWVU4o7bDlsJQ6Dd-NVRGWVTLtSnMY1RaA6-W0_BgbcYJfZrUfiJTIwq1-3ZTrNb6vbNywIANm00]--></g></svg>