<svg xmlns="http://www.w3.org/2000/svg" xmlns:xlink="http://www.w3.org/1999/xlink" contentStyleType="text/css" data-diagram-type="CLASS" height="911px" preserveAspectRatio="none" style="width:1242px;height:911px;background:#FFFFFF;" version="1.1" viewBox="0 0 1242 911" width="1242px" zoomAndPan="magnify"><title>Patr&#243;n Builder cl&#225;sico - Reserva de vuelo</title><defs/><g><g class="title" data-source-line="1"><text fill="#000000" font-family="sans-serif" font-size="14" font-weight="bold" lengthAdjust="spacing" textLength="324.2969" x="451.9102" y="22.9951">Patr&#243;n Builder cl&#225;sico - Reserva de vuelo</text></g><!--class ReservaVuelo--><g class="entity" data-entity="ReservaVuelo" data-source-line="6" data-uid="ent0002" id="entity_ReservaVuelo"><rect fill="#F1F1F1" height="194.6719" rx="2.5" ry="2.5" style="stroke:#181818;stroke-width:0.5;" width="207.3369" x="517.5" y="710.2969"/><ellipse cx="568.7251" cy="726.2969" fill="#ADD1B2" rx="11" ry="11" style="stroke:#181818;stroke-width:1;"/><path d="M571.6938,731.9375 Q571.1157,732.2344 570.4751,732.375 Q569.8345,732.5313 569.1313,732.5313 Q566.6313,732.5313 565.3032,730.8906 Q563.9907,729.2344 563.9907,726.1094 Q563.9907,722.9844 565.3032,721.3281 Q566.6313,719.6719 569.1313,719.6719 Q569.8345,719.6719 570.4751,719.8281 Q571.1313,719.9844 571.6938,720.2813 L571.6938,723 Q571.0688,722.4219 570.4751,722.1563 Q569.8813,721.875 569.2563,721.875 Q567.9126,721.875 567.2251,722.9531 Q566.5376,724.0156 566.5376,726.1094 Q566.5376,728.2031 567.2251,729.2813 Q567.9126,730.3438 569.2563,730.3438 Q569.8813,730.3438 570.4751,730.0781 Q571.0688,729.7969 571.6938,729.2188 L571.6938,731.9375 Z " fill="#000000"/><text fill="#000000" font-family="sans-serif" font-size="14" lengthAdjust="spacing" textLength="96.3867" x="589.2251" y="731.1436">ReservaVuelo</text><line style="stroke:#181818;stroke-width:0.5;" x1="518.5" x2="723.8369" y1="742.2969" y2="742.2969"/><text fill="#000000" font-family="sans-serif" font-size="14" lengthAdjust="spacing" textLength="105.0342" x="523.5" y="759.292">-origen : String</text><text fill="#000000" font-family="sans-serif" font-size="14" lengthAdjust="spacing" textLength="112.0615" x="523.5" y="775.5889">-destino : String</text><text fill="#000000" font-family="sans-serif" font-size="14" lengthAdjust="spacing" textLength="90.8223" x="523.5" y="791.8857">-fecha : Date</text><text fill="#000000" font-family="sans-serif" font-size="14" lengthAdjust="spacing" textLength="104.3779" x="523.5" y="808.1826">-pasajeros : int</text><text fill="#000000" font-family="sans-serif" font-size="14" lengthAdjust="spacing" textLength="112.9775" x="523.5" y="824.4795">-tarifa : Decimal</text><text fill="#000000" font-family="sans-serif" font-size="14" lengthAdjust="spacing" textLength="177.8848" x="523.5" y="840.7764">-seleccionAsiento : String</text><text fill="#000000" font-family="sans-serif" font-size="14" lengthAdjust="spacing" textLength="184.5293" x="523.5" y="857.0732">-equipajeAdicional : String</text><text fill="#000000" font-family="sans-serif" font-size="14" lengthAdjust="spacing" textLength="151.0264" x="523.5" y="873.3701">-alimentacion : String</text><text fill="#000000" font-family="sans-serif" font-size="14" lengthAdjust="spacing" textLength="195.3369" x="523.5" y="889.667">-serviciosEspeciales : String</text><line style="stroke:#181818;stroke-width:0.5;" x1="518.5" x2="723.8369" y1="896.9688" y2="896.9688"/></g><!--class ReservaBuilder--><g class="entity" data-entity="ReservaBuilder" data-source-line="18" data-uid="ent0003" id="entity_ReservaBuilder"><rect fill="#F1F1F1" height="210.9688" rx="2.5" ry="2.5" style="stroke:#181818;stroke-width:0.5;" width="386.1172" x="428" y="168.2969"/><ellipse cx="563.6182" cy="184.2969" fill="#B4A7E5" rx="11" ry="11" style="stroke:#181818;stroke-width:1;"/><path d="M559.54,180.0625 L559.54,177.9063 L566.9307,177.9063 L566.9307,180.0625 L564.4619,180.0625 L564.4619,188.1406 L566.9307,188.1406 L566.9307,190.2969 L559.54,190.2969 L559.54,188.1406 L562.0088,188.1406 L562.0088,180.0625 L559.54,180.0625 Z " fill="#000000"/><text fill="#000000" font-family="sans-serif" font-size="14" font-style="italic" lengthAdjust="spacing" textLength="106.3809" x="584.1182" y="189.1436">ReservaBuilder</text><line style="stroke:#181818;stroke-width:0.5;" x1="429" x2="813.1172" y1="200.2969" y2="200.2969"/><line style="stroke:#181818;stroke-width:0.5;" x1="429" x2="813.1172" y1="208.2969" y2="208.2969"/><text fill="#000000" font-family="sans-serif" font-size="14" lengthAdjust="spacing" textLength="267.9756" x="434" y="225.292">+agregarOrigen(origen : String) : void</text><text fill="#000000" font-family="sans-serif" font-size="14" lengthAdjust="spacing" textLength="281.4697" x="434" y="241.5889">+agregarDestino(destino : String) : void</text><text fill="#000000" font-family="sans-serif" font-size="14" lengthAdjust="spacing" textLength="248.541" x="434" y="257.8857">+agregarFecha(fecha : Date) : void</text><text fill="#000000" font-family="sans-serif" font-size="14" lengthAdjust="spacing" textLength="287.2939" x="434" y="274.1826">+agregarPasajeros(pasajeros : int) : void</text><text fill="#000000" font-family="sans-serif" font-size="14" lengthAdjust="spacing" textLength="269.165" x="434" y="290.4795">+agregarTarifa(tarifa : Decimal) : void</text><text fill="#000000" font-family="sans-serif" font-size="14" lengthAdjust="spacing" textLength="346.6846" x="434" y="306.7764">+agregarSeleccionAsiento(asiento : String) : void</text><text fill="#000000" font-family="sans-serif" font-size="14" lengthAdjust="spacing" textLength="360.8965" x="434" y="323.0732">+agregarEquipajeAdicional(equipaje : String) : void</text><text fill="#000000" font-family="sans-serif" font-size="14" lengthAdjust="spacing" textLength="358.5039" x="434" y="339.3701">+agregarAlimentacion(alimentacion : String) : void</text><text fill="#000000" font-family="sans-serif" font-size="14" lengthAdjust="spacing" textLength="374.1172" x="434" y="355.667">+agregarServiciosEspeciales(servicios : String) : void</text><text fill="#000000" font-family="sans-serif" font-size="14" lengthAdjust="spacing" textLength="244.3232" x="434" y="371.9639">+obtenerReserva() : ReservaVuelo</text></g><!--class ReservaBasicaBuilder--><g class="entity" data-entity="ReservaBasicaBuilder" data-source-line="31" data-uid="ent0004" id="entity_ReservaBasicaBuilder"><rect fill="#F1F1F1" height="210.9688" rx="2.5" ry="2.5" style="stroke:#181818;stroke-width:0.5;" width="386.1172" x="7" y="439.2969"/><ellipse cx="119.7964" cy="455.2969" fill="#ADD1B2" rx="11" ry="11" style="stroke:#181818;stroke-width:1;"/><path d="M122.7651,460.9375 Q122.187,461.2344 121.5464,461.375 Q120.9058,461.5313 120.2026,461.5313 Q117.7026,461.5313 116.3745,459.8906 Q115.062,458.2344 115.062,455.1094 Q115.062,451.9844 116.3745,450.3281 Q117.7026,448.6719 120.2026,448.6719 Q120.9058,448.6719 121.5464,448.8281 Q122.2026,448.9844 122.7651,449.2813 L122.7651,452 Q122.1401,451.4219 121.5464,451.1563 Q120.9526,450.875 120.3276,450.875 Q118.9839,450.875 118.2964,451.9531 Q117.6089,453.0156 117.6089,455.1094 Q117.6089,457.2031 118.2964,458.2813 Q118.9839,459.3438 120.3276,459.3438 Q120.9526,459.3438 121.5464,459.0781 Q122.1401,458.7969 122.7651,458.2188 L122.7651,460.9375 Z " fill="#000000"/><text fill="#000000" font-family="sans-serif" font-size="14" lengthAdjust="spacing" textLength="152.0244" x="140.2964" y="460.1436">ReservaBasicaBuilder</text><line style="stroke:#181818;stroke-width:0.5;" x1="8" x2="392.1172" y1="471.2969" y2="471.2969"/><line style="stroke:#181818;stroke-width:0.5;" x1="8" x2="392.1172" y1="479.2969" y2="479.2969"/><text fill="#000000" font-family="sans-serif" font-size="14" lengthAdjust="spacing" textLength="267.9756" x="13" y="496.292">+agregarOrigen(origen : String) : void</text><text fill="#000000" font-family="sans-serif" font-size="14" lengthAdjust="spacing" textLength="281.4697" x="13" y="512.5889">+agregarDestino(destino : String) : void</text><text fill="#000000" font-family="sans-serif" font-size="14" lengthAdjust="spacing" textLength="248.541" x="13" y="528.8857">+agregarFecha(fecha : Date) : void</text><text fill="#000000" font-family="sans-serif" font-size="14" lengthAdjust="spacing" textLength="287.2939" x="13" y="545.1826">+agregarPasajeros(pasajeros : int) : void</text><text fill="#000000" font-family="sans-serif" font-size="14" lengthAdjust="spacing" textLength="269.165" x="13" y="561.4795">+agregarTarifa(tarifa : Decimal) : void</text><text fill="#000000" font-family="sans-serif" font-size="14" lengthAdjust="spacing" textLength="346.6846" x="13" y="577.7764">+agregarSeleccionAsiento(asiento : String) : void</text><text fill="#000000" font-family="sans-serif" font-size="14" lengthAdjust="spacing" textLength="360.8965" x="13" y="594.0732">+agregarEquipajeAdicional(equipaje : String) : void</text><text fill="#000000" font-family="sans-serif" font-size="14" lengthAdjust="spacing" textLength="358.5039" x="13" y="610.3701">+agregarAlimentacion(alimentacion : String) : void</text><text fill="#000000" font-family="sans-serif" font-size="14" lengthAdjust="spacing" textLength="374.1172" x="13" y="626.667">+agregarServiciosEspeciales(servicios : String) : void</text><text fill="#000000" font-family="sans-serif" font-size="14" lengthAdjust="spacing" textLength="244.3232" x="13" y="642.9639">+obtenerReserva() : ReservaVuelo</text></g><!--class ReservaEjecutivaBuilder--><g class="entity" data-entity="ReservaEjecutivaBuilder" data-source-line="44" data-uid="ent0005" id="entity_ReservaEjecutivaBuilder"><rect fill="#F1F1F1" height="210.9688" rx="2.5" ry="2.5" style="stroke:#181818;stroke-width:0.5;" width="386.1172" x="428" y="439.2969"/><ellipse cx="531.5371" cy="455.2969" fill="#ADD1B2" rx="11" ry="11" style="stroke:#181818;stroke-width:1;"/><path d="M534.5059,460.9375 Q533.9277,461.2344 533.2871,461.375 Q532.6465,461.5313 531.9434,461.5313 Q529.4434,461.5313 528.1152,459.8906 Q526.8027,458.2344 526.8027,455.1094 Q526.8027,451.9844 528.1152,450.3281 Q529.4434,448.6719 531.9434,448.6719 Q532.6465,448.6719 533.2871,448.8281 Q533.9434,448.9844 534.5059,449.2813 L534.5059,452 Q533.8809,451.4219 533.2871,451.1563 Q532.6934,450.875 532.0684,450.875 Q530.7246,450.875 530.0371,451.9531 Q529.3496,453.0156 529.3496,455.1094 Q529.3496,457.2031 530.0371,458.2813 Q530.7246,459.3438 532.0684,459.3438 Q532.6934,459.3438 533.2871,459.0781 Q533.8809,458.7969 534.5059,458.2188 L534.5059,460.9375 Z " fill="#000000"/><text fill="#000000" font-family="sans-serif" font-size="14" lengthAdjust="spacing" textLength="170.543" x="552.0371" y="460.1436">ReservaEjecutivaBuilder</text><line style="stroke:#181818;stroke-width:0.5;" x1="429" x2="813.1172" y1="471.2969" y2="471.2969"/><line style="stroke:#181818;stroke-width:0.5;" x1="429" x2="813.1172" y1="479.2969" y2="479.2969"/><text fill="#000000" font-family="sans-serif" font-size="14" lengthAdjust="spacing" textLength="267.9756" x="434" y="496.292">+agregarOrigen(origen : String) : void</text><text fill="#000000" font-family="sans-serif" font-size="14" lengthAdjust="spacing" textLength="281.4697" x="434" y="512.5889">+agregarDestino(destino : String) : void</text><text fill="#000000" font-family="sans-serif" font-size="14" lengthAdjust="spacing" textLength="248.541" x="434" y="528.8857">+agregarFecha(fecha : Date) : void</text><text fill="#000000" font-family="sans-serif" font-size="14" lengthAdjust="spacing" textLength="287.2939" x="434" y="545.1826">+agregarPasajeros(pasajeros : int) : void</text><text fill="#000000" font-family="sans-serif" font-size="14" lengthAdjust="spacing" textLength="269.165" x="434" y="561.4795">+agregarTarifa(tarifa : Decimal) : void</text><text fill="#000000" font-family="sans-serif" font-size="14" lengthAdjust="spacing" textLength="346.6846" x="434" y="577.7764">+agregarSeleccionAsiento(asiento : String) : void</text><text fill="#000000" font-family="sans-serif" font-size="14" lengthAdjust="spacing" textLength="360.8965" x="434" y="594.0732">+agregarEquipajeAdicional(equipaje : String) : void</text><text fill="#000000" font-family="sans-serif" font-size="14" lengthAdjust="spacing" textLength="358.5039" x="434" y="610.3701">+agregarAlimentacion(alimentacion : String) : void</text><text fill="#000000" font-family="sans-serif" font-size="14" lengthAdjust="spacing" textLength="374.1172" x="434" y="626.667">+agregarServiciosEspeciales(servicios : String) : void</text><text fill="#000000" font-family="sans-serif" font-size="14" lengthAdjust="spacing" textLength="244.3232" x="434" y="642.9639">+obtenerReserva() : ReservaVuelo</text></g><!--class ReservaEspecialBuilder--><g class="entity" data-entity="ReservaEspecialBuilder" data-source-line="57" data-uid="ent0006" id="entity_ReservaEspecialBuilder"><rect fill="#F1F1F1" height="210.9688" rx="2.5" ry="2.5" style="stroke:#181818;stroke-width:0.5;" width="386.1172" x="849" y="439.2969"/><ellipse cx="955.7705" cy="455.2969" fill="#ADD1B2" rx="11" ry="11" style="stroke:#181818;stroke-width:1;"/><path d="M958.7393,460.9375 Q958.1611,461.2344 957.5205,461.375 Q956.8799,461.5313 956.1768,461.5313 Q953.6768,461.5313 952.3486,459.8906 Q951.0361,458.2344 951.0361,455.1094 Q951.0361,451.9844 952.3486,450.3281 Q953.6768,448.6719 956.1768,448.6719 Q956.8799,448.6719 957.5205,448.8281 Q958.1768,448.9844 958.7393,449.2813 L958.7393,452 Q958.1143,451.4219 957.5205,451.1563 Q956.9268,450.875 956.3018,450.875 Q954.958,450.875 954.2705,451.9531 Q953.583,453.0156 953.583,455.1094 Q953.583,457.2031 954.2705,458.2813 Q954.958,459.3438 956.3018,459.3438 Q956.9268,459.3438 957.5205,459.0781 Q958.1143,458.7969 958.7393,458.2188 L958.7393,460.9375 Z " fill="#000000"/><text fill="#000000" font-family="sans-serif" font-size="14" lengthAdjust="spacing" textLength="164.0762" x="976.2705" y="460.1436">ReservaEspecialBuilder</text><line style="stroke:#181818;stroke-width:0.5;" x1="850" x2="1234.1172" y1="471.2969" y2="471.2969"/><line style="stroke:#181818;stroke-width:0.5;" x1="850" x2="1234.1172" y1="479.2969" y2="479.2969"/><text fill="#000000" font-family="sans-serif" font-size="14" lengthAdjust="spacing" textLength="267.9756" x="855" y="496.292">+agregarOrigen(origen : String) : void</text><text fill="#000000" font-family="sans-serif" font-size="14" lengthAdjust="spacing" textLength="281.4697" x="855" y="512.5889">+agregarDestino(destino : String) : void</text><text fill="#000000" font-family="sans-serif" font-size="14" lengthAdjust="spacing" textLength="248.541" x="855" y="528.8857">+agregarFecha(fecha : Date) : void</text><text fill="#000000" font-family="sans-serif" font-size="14" lengthAdjust="spacing" textLength="287.2939" x="855" y="545.1826">+agregarPasajeros(pasajeros : int) : void</text><text fill="#000000" font-family="sans-serif" font-size="14" lengthAdjust="spacing" textLength="269.165" x="855" y="561.4795">+agregarTarifa(tarifa : Decimal) : void</text><text fill="#000000" font-family="sans-serif" font-size="14" lengthAdjust="spacing" textLength="346.6846" x="855" y="577.7764">+agregarSeleccionAsiento(asiento : String) : void</text><text fill="#000000" font-family="sans-serif" font-size="14" lengthAdjust="spacing" textLength="360.8965" x="855" y="594.0732">+agregarEquipajeAdicional(equipaje : String) : void</text><text fill="#000000" font-family="sans-serif" font-size="14" lengthAdjust="spacing" textLength="358.5039" x="855" y="610.3701">+agregarAlimentacion(alimentacion : String) : void</text><text fill="#000000" font-family="sans-serif" font-size="14" lengthAdjust="spacing" textLength="374.1172" x="855" y="626.667">+agregarServiciosEspeciales(servicios : String) : void</text><text fill="#000000" font-family="sans-serif" font-size="14" lengthAdjust="spacing" textLength="244.3232" x="855" y="642.9639">+obtenerReserva() : ReservaVuelo</text></g><!--class DirectorReservaVuelo--><g class="entity" data-entity="DirectorReservaVuelo" data-source-line="70" data-uid="ent0007" id="entity_DirectorReservaVuelo"><rect fill="#F1F1F1" height="64.2969" rx="2.5" ry="2.5" style="stroke:#181818;stroke-width:0.5;" width="432.5127" x="404.5" y="44.2969"/><ellipse cx="540.0396" cy="60.2969" fill="#ADD1B2" rx="11" ry="11" style="stroke:#181818;stroke-width:1;"/><path d="M543.0083,65.9375 Q542.4302,66.2344 541.7896,66.375 Q541.1489,66.5313 540.4458,66.5313 Q537.9458,66.5313 536.6177,64.8906 Q535.3052,63.2344 535.3052,60.1094 Q535.3052,56.9844 536.6177,55.3281 Q537.9458,53.6719 540.4458,53.6719 Q541.1489,53.6719 541.7896,53.8281 Q542.4458,53.9844 543.0083,54.2813 L543.0083,57 Q542.3833,56.4219 541.7896,56.1563 Q541.1958,55.875 540.5708,55.875 Q539.2271,55.875 538.5396,56.9531 Q537.8521,58.0156 537.8521,60.1094 Q537.8521,62.2031 538.5396,63.2813 Q539.2271,64.3438 540.5708,64.3438 Q541.1958,64.3438 541.7896,64.0781 Q542.3833,63.7969 543.0083,63.2188 L543.0083,65.9375 Z " fill="#000000"/><text fill="#000000" font-family="sans-serif" font-size="14" lengthAdjust="spacing" textLength="152.9336" x="560.5396" y="65.1436">DirectorReservaVuelo</text><line style="stroke:#181818;stroke-width:0.5;" x1="405.5" x2="836.0127" y1="76.2969" y2="76.2969"/><line style="stroke:#181818;stroke-width:0.5;" x1="405.5" x2="836.0127" y1="84.2969" y2="84.2969"/><text fill="#000000" font-family="sans-serif" font-size="14" lengthAdjust="spacing" textLength="420.5127" x="410.5" y="101.292">+construirReserva(builder : ReservaBuilder) : ReservaVuelo</text></g><!--reverse link ReservaBuilder to ReservaBasicaBuilder--><g class="link" data-entity-1="ReservaBuilder" data-entity-2="ReservaBasicaBuilder" data-source-line="75" data-uid="lnk8" id="link_ReservaBuilder_ReservaBasicaBuilder"><path codeLine="75" d="M409.75,274.2969 C299.08,274.2969 200,274.2969 200,274.2969 C200,274.2969 200,363.1869 200,439.0569" fill="none" id="ReservaBuilder-backto-ReservaBasicaBuilder" style="stroke:#181818;stroke-width:1;stroke-dasharray:7,7;"/><polygon fill="none" points="427.75,274.2969,409.75,268.2969,409.75,280.2969,427.75,274.2969" style="stroke:#181818;stroke-width:1;"/></g><!--reverse link ReservaBuilder to ReservaEjecutivaBuilder--><g class="link" data-entity-1="ReservaBuilder" data-entity-2="ReservaEjecutivaBuilder" data-source-line="76" data-uid="lnk9" id="link_ReservaBuilder_ReservaEjecutivaBuilder"><path codeLine="76" d="M621,397.3469 C621,416.9669 621,419.4669 621,439.0869" fill="none" id="ReservaBuilder-backto-ReservaEjecutivaBuilder" style="stroke:#181818;stroke-width:1;stroke-dasharray:7,7;"/><polygon fill="none" points="621,379.3469,615,397.3469,627,397.3469,621,379.3469" style="stroke:#181818;stroke-width:1;"/></g><!--reverse link ReservaBuilder to ReservaEspecialBuilder--><g class="link" data-entity-1="ReservaBuilder" data-entity-2="ReservaEspecialBuilder" data-source-line="77" data-uid="lnk10" id="link_ReservaBuilder_ReservaEspecialBuilder"><path codeLine="77" d="M832.25,274.2969 C942.92,274.2969 1042,274.2969 1042,274.2969 C1042,274.2969 1042,363.1869 1042,439.0569" fill="none" id="ReservaBuilder-backto-ReservaEspecialBuilder" style="stroke:#181818;stroke-width:1;stroke-dasharray:7,7;"/><polygon fill="none" points="814.25,274.2969,832.25,280.2969,832.25,268.2969,814.25,274.2969" style="stroke:#181818;stroke-width:1;"/></g><!--link DirectorReservaVuelo to ReservaBuilder--><g class="link" data-entity-1="DirectorReservaVuelo" data-entity-2="ReservaBuilder" data-source-line="79" data-uid="lnk11" id="link_DirectorReservaVuelo_ReservaBuilder"><path codeLine="79" d="M621,108.4669 C621,125.0869 621,140.4069 621,162.1669" fill="none" id="DirectorReservaVuelo-to-ReservaBuilder" style="stroke:#181818;stroke-width:1;"/><polygon fill="#181818" points="621,168.1669,625,159.1669,621,163.1669,617,159.1669,621,168.1669" style="stroke:#181818;stroke-width:1;"/><text fill="#000000" font-family="sans-serif" font-size="13" lengthAdjust="spacing" textLength="38.9619" x="622" y="134.3838">utiliza</text><text fill="#000000" font-family="sans-serif" font-size="13" lengthAdjust="spacing" textLength="8.271" x="612.2532" y="128.6988">1</text><text fill="#000000" font-family="sans-serif" font-size="13" lengthAdjust="spacing" textLength="8.271" x="612.7242" y="157.2851">1</text></g><!--link ReservaBasicaBuilder to ReservaVuelo--><g class="link" data-entity-1="ReservaBasicaBuilder" data-entity-2="ReservaVuelo" data-source-line="81" data-uid="lnk12" id="link_ReservaBasicaBuilder_ReservaVuelo"><path codeLine="81" d="M200,650.4569 C200,723.7569 200,808.2969 200,808.2969 C200,808.2969 386.82,808.2969 511.47,808.2969" fill="none" id="ReservaBasicaBuilder-to-ReservaVuelo" style="stroke:#181818;stroke-width:1;stroke-dasharray:7,7;"/><polygon fill="#181818" points="517.47,808.2969,508.47,804.2969,512.47,808.2969,508.47,812.2969,517.47,808.2969" style="stroke:#181818;stroke-width:1;"/><text fill="#000000" font-family="sans-serif" font-size="13" lengthAdjust="spacing" textLength="57.459" x="221.81" y="804.3638">&#171;create&#187;</text></g><!--link ReservaEjecutivaBuilder to ReservaVuelo--><g class="link" data-entity-1="ReservaEjecutivaBuilder" data-entity-2="ReservaVuelo" data-source-line="82" data-uid="lnk13" id="link_ReservaEjecutivaBuilder_ReservaVuelo"><path codeLine="82" d="M621,650.6369 C621,670.3269 621,684.8269 621,704.2569" fill="none" id="ReservaEjecutivaBuilder-to-ReservaVuelo" style="stroke:#181818;stroke-width:1;stroke-dasharray:7,7;"/><polygon fill="#181818" points="621,710.2569,625,701.2569,621,705.2569,617,701.2569,621,710.2569" style="stroke:#181818;stroke-width:1;"/><text fill="#000000" font-family="sans-serif" font-size="13" lengthAdjust="spacing" textLength="57.459" x="563" y="676.5138">&#171;create&#187;</text></g><!--link ReservaEspecialBuilder to ReservaVuelo--><g class="link" data-entity-1="ReservaEspecialBuilder" data-entity-2="ReservaVuelo" data-source-line="83" data-uid="lnk14" id="link_ReservaEspecialBuilder_ReservaVuelo"><path codeLine="83" d="M1042,650.4569 C1042,723.7569 1042,808.2969 1042,808.2969 C1042,808.2969 855.18,808.2969 730.53,808.2969" fill="none" id="ReservaEspecialBuilder-to-ReservaVuelo" style="stroke:#181818;stroke-width:1;stroke-dasharray:7,7;"/><polygon fill="#181818" points="724.53,808.2969,733.53,812.2969,729.53,808.2969,733.53,804.2969,724.53,808.2969" style="stroke:#181818;stroke-width:1;"/><text fill="#000000" font-family="sans-serif" font-size="13" lengthAdjust="spacing" textLength="57.459" x="904.19" y="804.3638">&#171;create&#187;</text></g><!--SRC=[xLP1Rjim4Bph5OkSM1GscgjX671W5-YfGLtqlgRMpYOqgP0h0qtRn_GDVK8-LagH4ekXtTvZNIGiPvRax8XSOJ44roZ-yO-5gvfDIHwqUVmTM3iOmHSAvFS89S6-9kEA8jonhT3ZBi8mXBc8vtKjz4axk-87WWy74CEMv7j5uBpSH79BwPD-QnB2ZmBYCue8tfA52QnYGhljeYK5OUlIy8Rq3SRW0eMwK8K1Rycx4CDifOiAUjwqIDAyGzE50ndIcfsT1oOhh_BJVSrLJ3SlkK6XIG5eU1U9s8ocOytc6bfOXYhEYeR22-HNKSJLaT-Wfbw8NlSdATu3RZrjqNzk5L69CE_YrzvnESGkddHIgLvvzCT6FdKeOXvttMkg4dNpyA-js2hLF0zU9ILGc9GYJrkcbL5zhVv1d1zKJ6NBTsoThwgfdYjyZElMGfPyLr_LZ1wQld71u5UuYflNPn-yUHyiRqdNmkSZuMo5FlVP2M_M2GlsfCNvf5_gqiH-AuYl-JdHkdFA9EahSXCadSVqvtYSlOjE0TF3wYHswEQYoExjul82HgDP-qwIJI1EPVW1NzO-k3F7uzcmhvp0TAezHVlEPiMnu_N_MCcVU9hq5m00]--></g></svg>