<svg xmlns="http://www.w3.org/2000/svg" xmlns:xlink="http://www.w3.org/1999/xlink" contentStyleType="text/css" data-diagram-type="CLASS" height="762px" preserveAspectRatio="none" style="width:899px;height:762px;background:#FFFFFF;" version="1.1" viewBox="0 0 899 762" width="899px" zoomAndPan="magnify"><defs/><g><!--class Cliente--><g class="entity" data-entity="Cliente" data-source-line="1" data-uid="ent0002" id="entity_Cliente"><rect fill="#F1F1F1" height="113.1875" rx="2.5" ry="2.5" style="stroke:#181818;stroke-width:0.5;" width="193.0703" x="192" y="7"/><ellipse cx="259.7134" cy="23" fill="#ADD1B2" rx="11" ry="11" style="stroke:#181818;stroke-width:1;"/><path d="M262.6821,28.6406 Q262.104,28.9375 261.4634,29.0781 Q260.8228,29.2344 260.1196,29.2344 Q257.6196,29.2344 256.2915,27.5938 Q254.979,25.9375 254.979,22.8125 Q254.979,19.6875 256.2915,18.0313 Q257.6196,16.375 260.1196,16.375 Q260.8228,16.375 261.4634,16.5313 Q262.1196,16.6875 262.6821,16.9844 L262.6821,19.7031 Q262.0571,19.125 261.4634,18.8594 Q260.8696,18.5781 260.2446,18.5781 Q258.9009,18.5781 258.2134,19.6563 Q257.5259,20.7188 257.5259,22.8125 Q257.5259,24.9063 258.2134,25.9844 Q258.9009,27.0469 260.2446,27.0469 Q260.8696,27.0469 261.4634,26.7813 Q262.0571,26.5 262.6821,25.9219 L262.6821,28.6406 Z " fill="#000000"/><text fill="#000000" font-family="sans-serif" font-size="14" lengthAdjust="spacing" textLength="49.1436" x="280.2134" y="27.8467">Cliente</text><line style="stroke:#181818;stroke-width:0.5;" x1="193" x2="384.0703" y1="39" y2="39"/><rect fill="none" height="6" style="stroke:#C82930;stroke-width:1;" width="6" x="200" y="49.6484"/><text fill="#000000" font-family="sans-serif" font-size="14" lengthAdjust="spacing" textLength="40.1953" x="212" y="55.9951">id: int</text><rect fill="none" height="6" style="stroke:#C82930;stroke-width:1;" width="6" x="200" y="65.9453"/><text fill="#000000" font-family="sans-serif" font-size="14" lengthAdjust="spacing" textLength="105.2803" x="212" y="72.292">nombre: String</text><rect fill="none" height="6" style="stroke:#C82930;stroke-width:1;" width="6" x="200" y="82.2422"/><text fill="#000000" font-family="sans-serif" font-size="14" lengthAdjust="spacing" textLength="95.9014" x="212" y="88.5889">correo: String</text><line style="stroke:#181818;stroke-width:0.5;" x1="193" x2="384.0703" y1="95.8906" y2="95.8906"/><ellipse cx="203" cy="109.5391" fill="#84BE84" rx="3" ry="3" style="stroke:#038048;stroke-width:1;"/><text fill="#000000" font-family="sans-serif" font-size="14" lengthAdjust="spacing" textLength="167.0703" x="212" y="112.8857">realizarPedido(): Pedido</text></g><!--class Producto--><g class="entity" data-entity="Producto" data-source-line="8" data-uid="ent0003" id="entity_Producto"><rect fill="#F1F1F1" height="113.1875" rx="2.5" ry="2.5" style="stroke:#181818;stroke-width:0.5;" width="191.5117" x="192.5" y="642"/><ellipse cx="252.8682" cy="658" fill="#ADD1B2" rx="11" ry="11" style="stroke:#181818;stroke-width:1;"/><path d="M255.8369,663.6406 Q255.2588,663.9375 254.6182,664.0781 Q253.9775,664.2344 253.2744,664.2344 Q250.7744,664.2344 249.4463,662.5938 Q248.1338,660.9375 248.1338,657.8125 Q248.1338,654.6875 249.4463,653.0313 Q250.7744,651.375 253.2744,651.375 Q253.9775,651.375 254.6182,651.5313 Q255.2744,651.6875 255.8369,651.9844 L255.8369,654.7031 Q255.2119,654.125 254.6182,653.8594 Q254.0244,653.5781 253.3994,653.5781 Q252.0557,653.5781 251.3682,654.6563 Q250.6807,655.7188 250.6807,657.8125 Q250.6807,659.9063 251.3682,660.9844 Q252.0557,662.0469 253.3994,662.0469 Q254.0244,662.0469 254.6182,661.7813 Q255.2119,661.5 255.8369,660.9219 L255.8369,663.6406 Z " fill="#000000"/><text fill="#000000" font-family="sans-serif" font-size="14" lengthAdjust="spacing" textLength="62.2754" x="273.3682" y="662.8467">Producto</text><line style="stroke:#181818;stroke-width:0.5;" x1="193.5" x2="383.0117" y1="674" y2="674"/><rect fill="none" height="6" style="stroke:#C82930;stroke-width:1;" width="6" x="200.5" y="684.6484"/><text fill="#000000" font-family="sans-serif" font-size="14" lengthAdjust="spacing" textLength="40.1953" x="212.5" y="690.9951">id: int</text><rect fill="none" height="6" style="stroke:#C82930;stroke-width:1;" width="6" x="200.5" y="700.9453"/><text fill="#000000" font-family="sans-serif" font-size="14" lengthAdjust="spacing" textLength="105.2803" x="212.5" y="707.292">nombre: String</text><rect fill="none" height="6" style="stroke:#C82930;stroke-width:1;" width="6" x="200.5" y="717.2422"/><text fill="#000000" font-family="sans-serif" font-size="14" lengthAdjust="spacing" textLength="132.043" x="212.5" y="723.5889">precio: BigDecimal</text><line style="stroke:#181818;stroke-width:0.5;" x1="193.5" x2="383.0117" y1="730.8906" y2="730.8906"/><ellipse cx="203.5" cy="744.5391" fill="#84BE84" rx="3" ry="3" style="stroke:#038048;stroke-width:1;"/><text fill="#000000" font-family="sans-serif" font-size="14" lengthAdjust="spacing" textLength="165.5117" x="212.5" y="747.8857">getPrecio(): BigDecimal</text></g><!--class EstadoPedido--><g class="entity" data-entity="EstadoPedido" data-source-line="15" data-uid="ent0004" id="entity_EstadoPedido"><rect fill="#F1F1F1" height="113.1875" rx="2.5" ry="2.5" style="stroke:#181818;stroke-width:0.5;" width="126.9443" x="7" y="452"/><ellipse cx="22" cy="468" fill="#EB937F" rx="11" ry="11" style="stroke:#181818;stroke-width:1;"/><path d="M26.1094,474 L18.3906,474 L18.3906,461.6094 L26.1094,461.6094 L26.1094,463.7656 L20.8438,463.7656 L20.8438,466.4375 L25.6094,466.4375 L25.6094,468.5938 L20.8438,468.5938 L20.8438,471.8438 L26.1094,471.8438 L26.1094,474 Z " fill="#000000"/><text fill="#000000" font-family="sans-serif" font-size="14" lengthAdjust="spacing" textLength="94.9443" x="36" y="472.8467">EstadoPedido</text><line style="stroke:#181818;stroke-width:0.5;" x1="8" x2="132.9443" y1="484" y2="484"/><text fill="#000000" font-family="sans-serif" font-size="14" lengthAdjust="spacing" textLength="79.3857" x="13" y="500.9951">PENDIENTE</text><text fill="#000000" font-family="sans-serif" font-size="14" lengthAdjust="spacing" textLength="60.2451" x="13" y="517.292">PAGADO</text><text fill="#000000" font-family="sans-serif" font-size="14" lengthAdjust="spacing" textLength="64.4014" x="13" y="533.5889">ENVIADO</text><text fill="#000000" font-family="sans-serif" font-size="14" lengthAdjust="spacing" textLength="87.623" x="13" y="549.8857">CANCELADO</text><line style="stroke:#181818;stroke-width:0.5;" x1="8" x2="132.9443" y1="557.1875" y2="557.1875"/></g><!--class Pedido--><g class="entity" data-entity="Pedido" data-source-line="22" data-uid="ent0005" id="entity_Pedido"><rect fill="#F1F1F1" height="178.375" rx="2.5" ry="2.5" style="stroke:#181818;stroke-width:0.5;" width="424.4121" x="76.5" y="197"/><ellipse cx="260.814" cy="213" fill="#ADD1B2" rx="11" ry="11" style="stroke:#181818;stroke-width:1;"/><path d="M263.7827,218.6406 Q263.2046,218.9375 262.564,219.0781 Q261.9233,219.2344 261.2202,219.2344 Q258.7202,219.2344 257.3921,217.5938 Q256.0796,215.9375 256.0796,212.8125 Q256.0796,209.6875 257.3921,208.0313 Q258.7202,206.375 261.2202,206.375 Q261.9233,206.375 262.564,206.5313 Q263.2202,206.6875 263.7827,206.9844 L263.7827,209.7031 Q263.1577,209.125 262.564,208.8594 Q261.9702,208.5781 261.3452,208.5781 Q260.0015,208.5781 259.314,209.6563 Q258.6265,210.7188 258.6265,212.8125 Q258.6265,214.9063 259.314,215.9844 Q260.0015,217.0469 261.3452,217.0469 Q261.9702,217.0469 262.564,216.7813 Q263.1577,216.5 263.7827,215.9219 L263.7827,218.6406 Z " fill="#000000"/><text fill="#000000" font-family="sans-serif" font-size="14" lengthAdjust="spacing" textLength="47.2842" x="281.314" y="217.8467">Pedido</text><line style="stroke:#181818;stroke-width:0.5;" x1="77.5" x2="499.9121" y1="229" y2="229"/><rect fill="none" height="6" style="stroke:#C82930;stroke-width:1;" width="6" x="84.5" y="239.6484"/><text fill="#000000" font-family="sans-serif" font-size="14" lengthAdjust="spacing" textLength="40.1953" x="96.5" y="245.9951">id: int</text><rect fill="none" height="6" style="stroke:#C82930;stroke-width:1;" width="6" x="84.5" y="255.9453"/><text fill="#000000" font-family="sans-serif" font-size="14" lengthAdjust="spacing" textLength="152.5439" x="96.5" y="262.292">fecha: LocalDateTime</text><rect fill="none" height="6" style="stroke:#C82930;stroke-width:1;" width="6" x="84.5" y="272.2422"/><text fill="#000000" font-family="sans-serif" font-size="14" lengthAdjust="spacing" textLength="151.5391" x="96.5" y="278.5889">estado: EstadoPedido</text><line style="stroke:#181818;stroke-width:0.5;" x1="77.5" x2="499.9121" y1="285.8906" y2="285.8906"/><ellipse cx="87.5" cy="299.5391" fill="#84BE84" rx="3" ry="3" style="stroke:#038048;stroke-width:1;"/><text fill="#000000" font-family="sans-serif" font-size="14" lengthAdjust="spacing" textLength="398.4121" x="96.5" y="302.8857">agregarProducto(producto: Producto, cantidad: int): void</text><ellipse cx="87.5" cy="315.8359" fill="#84BE84" rx="3" ry="3" style="stroke:#038048;stroke-width:1;"/><text fill="#000000" font-family="sans-serif" font-size="14" lengthAdjust="spacing" textLength="189.5947" x="96.5" y="319.1826">calcularTotal(): BigDecimal</text><ellipse cx="87.5" cy="332.1328" fill="#84BE84" rx="3" ry="3" style="stroke:#038048;stroke-width:1;"/><text fill="#000000" font-family="sans-serif" font-size="14" lengthAdjust="spacing" textLength="222.7695" x="96.5" y="335.4795">registrarPago(pago: Pago): void</text><ellipse cx="87.5" cy="348.4297" fill="#84BE84" rx="3" ry="3" style="stroke:#038048;stroke-width:1;"/><text fill="#000000" font-family="sans-serif" font-size="14" lengthAdjust="spacing" textLength="93.7139" x="96.5" y="351.7764">enviar(): void</text><ellipse cx="87.5" cy="364.7266" fill="#84BE84" rx="3" ry="3" style="stroke:#038048;stroke-width:1;"/><text fill="#000000" font-family="sans-serif" font-size="14" lengthAdjust="spacing" textLength="109.4023" x="96.5" y="368.0732">cancelar(): void</text></g><!--class DetallePedido--><g class="entity" data-entity="DetallePedido" data-source-line="33" data-uid="ent0006" id="entity_DetallePedido"><rect fill="#F1F1F1" height="96.8906" rx="2.5" ry="2.5" style="stroke:#181818;stroke-width:0.5;" width="239.1787" x="169" y="460"/><ellipse cx="235.77" cy="476" fill="#ADD1B2" rx="11" ry="11" style="stroke:#181818;stroke-width:1;"/><path d="M238.7388,481.6406 Q238.1606,481.9375 237.52,482.0781 Q236.8794,482.2344 236.1763,482.2344 Q233.6763,482.2344 232.3481,480.5938 Q231.0356,478.9375 231.0356,475.8125 Q231.0356,472.6875 232.3481,471.0313 Q233.6763,469.375 236.1763,469.375 Q236.8794,469.375 237.52,469.5313 Q238.1763,469.6875 238.7388,469.9844 L238.7388,472.7031 Q238.1138,472.125 237.52,471.8594 Q236.9263,471.5781 236.3013,471.5781 Q234.9575,471.5781 234.27,472.6563 Q233.5825,473.7188 233.5825,475.8125 Q233.5825,477.9063 234.27,478.9844 Q234.9575,480.0469 236.3013,480.0469 Q236.9263,480.0469 237.52,479.7813 Q238.1138,479.5 238.7388,478.9219 L238.7388,481.6406 Z " fill="#000000"/><text fill="#000000" font-family="sans-serif" font-size="14" lengthAdjust="spacing" textLength="97.1387" x="256.27" y="480.8467">DetallePedido</text><line style="stroke:#181818;stroke-width:0.5;" x1="170" x2="407.1787" y1="492" y2="492"/><rect fill="none" height="6" style="stroke:#C82930;stroke-width:1;" width="6" x="177" y="502.6484"/><text fill="#000000" font-family="sans-serif" font-size="14" lengthAdjust="spacing" textLength="88.2998" x="189" y="508.9951">cantidad: int</text><rect fill="none" height="6" style="stroke:#C82930;stroke-width:1;" width="6" x="177" y="518.9453"/><text fill="#000000" font-family="sans-serif" font-size="14" lengthAdjust="spacing" textLength="187.332" x="189" y="525.292">precioUnitario: BigDecimal</text><line style="stroke:#181818;stroke-width:0.5;" x1="170" x2="407.1787" y1="532.5938" y2="532.5938"/><ellipse cx="180" cy="546.2422" fill="#84BE84" rx="3" ry="3" style="stroke:#038048;stroke-width:1;"/><text fill="#000000" font-family="sans-serif" font-size="14" lengthAdjust="spacing" textLength="213.1787" x="189" y="549.5889">calcularSubtotal(): BigDecimal</text></g><!--class Pago--><g class="entity" data-entity="Pago" data-source-line="39" data-uid="ent0007" id="entity_Pago"><rect fill="#F1F1F1" height="96.8906" rx="2.5" ry="2.5" style="stroke:#181818;stroke-width:0.5;" width="197.6846" x="443.5" y="460"/><ellipse cx="520.8555" cy="476" fill="#A9DCDF" rx="11" ry="11" style="stroke:#181818;stroke-width:1;"/><path d="M520.9648,471.3438 L519.8086,476.4219 L522.1367,476.4219 L520.9648,471.3438 Z M519.4805,469.1094 L522.4648,469.1094 L525.8242,481.5 L523.3711,481.5 L522.6055,478.4375 L519.3242,478.4375 L518.5742,481.5 L516.1367,481.5 L519.4805,469.1094 Z " fill="#000000"/><text fill="#000000" font-family="sans-serif" font-size="14" font-style="italic" lengthAdjust="spacing" textLength="34.4736" x="541.3555" y="480.8467">Pago</text><line style="stroke:#181818;stroke-width:0.5;" x1="444.5" x2="640.1846" y1="492" y2="492"/><rect fill="none" height="6" style="stroke:#C82930;stroke-width:1;" width="6" x="451.5" y="502.6484"/><text fill="#000000" font-family="sans-serif" font-size="14" lengthAdjust="spacing" textLength="40.1953" x="463.5" y="508.9951">id: int</text><rect fill="none" height="6" style="stroke:#C82930;stroke-width:1;" width="6" x="451.5" y="518.9453"/><text fill="#000000" font-family="sans-serif" font-size="14" lengthAdjust="spacing" textLength="133.7656" x="463.5" y="525.292">monto: BigDecimal</text><line style="stroke:#181818;stroke-width:0.5;" x1="444.5" x2="640.1846" y1="532.5938" y2="532.5938"/><ellipse cx="454.5" cy="546.2422" fill="#84BE84" rx="3" ry="3" style="stroke:#038048;stroke-width:1;"/><text fill="#000000" font-family="sans-serif" font-size="14" font-style="italic" lengthAdjust="spacing" textLength="171.6846" x="463.5" y="549.5889">procesarPago(): boolean</text></g><!--class PagoTarjeta--><g class="entity" data-entity="PagoTarjeta" data-source-line="45" data-uid="ent0008" id="entity_PagoTarjeta"><rect fill="#F1F1F1" height="80.5938" rx="2.5" ry="2.5" style="stroke:#181818;stroke-width:0.5;" width="197.6846" x="431.5" y="658"/><ellipse cx="484.1265" cy="674" fill="#ADD1B2" rx="11" ry="11" style="stroke:#181818;stroke-width:1;"/><path d="M487.0952,679.6406 Q486.5171,679.9375 485.8765,680.0781 Q485.2358,680.2344 484.5327,680.2344 Q482.0327,680.2344 480.7046,678.5938 Q479.3921,676.9375 479.3921,673.8125 Q479.3921,670.6875 480.7046,669.0313 Q482.0327,667.375 484.5327,667.375 Q485.2358,667.375 485.8765,667.5313 Q486.5327,667.6875 487.0952,667.9844 L487.0952,670.7031 Q486.4702,670.125 485.8765,669.8594 Q485.2827,669.5781 484.6577,669.5781 Q483.314,669.5781 482.6265,670.6563 Q481.939,671.7188 481.939,673.8125 Q481.939,675.9063 482.6265,676.9844 Q483.314,678.0469 484.6577,678.0469 Q485.2827,678.0469 485.8765,677.7813 Q486.4702,677.5 487.0952,676.9219 L487.0952,679.6406 Z " fill="#000000"/><text fill="#000000" font-family="sans-serif" font-size="14" lengthAdjust="spacing" textLength="83.9316" x="504.6265" y="678.8467">PagoTarjeta</text><line style="stroke:#181818;stroke-width:0.5;" x1="432.5" x2="628.1846" y1="690" y2="690"/><rect fill="none" height="6" style="stroke:#C82930;stroke-width:1;" width="6" x="439.5" y="700.6484"/><text fill="#000000" font-family="sans-serif" font-size="14" lengthAdjust="spacing" textLength="149.625" x="451.5" y="706.9951">ultimosCuatro: String</text><line style="stroke:#181818;stroke-width:0.5;" x1="432.5" x2="628.1846" y1="714.2969" y2="714.2969"/><ellipse cx="442.5" cy="727.9453" fill="#84BE84" rx="3" ry="3" style="stroke:#038048;stroke-width:1;"/><text fill="#000000" font-family="sans-serif" font-size="14" lengthAdjust="spacing" textLength="171.6846" x="451.5" y="731.292">procesarPago(): boolean</text></g><!--class PagoTransferencia--><g class="entity" data-entity="PagoTransferencia" data-source-line="50" data-uid="ent0009" id="entity_PagoTransferencia"><rect fill="#F1F1F1" height="96.8906" rx="2.5" ry="2.5" style="stroke:#181818;stroke-width:0.5;" width="227.2705" x="665" y="650"/><ellipse cx="709.1568" cy="666" fill="#ADD1B2" rx="11" ry="11" style="stroke:#181818;stroke-width:1;"/><path d="M712.1256,671.6406 Q711.5475,671.9375 710.9068,672.0781 Q710.2662,672.2344 709.5631,672.2344 Q707.0631,672.2344 705.735,670.5938 Q704.4225,668.9375 704.4225,665.8125 Q704.4225,662.6875 705.735,661.0313 Q707.0631,659.375 709.5631,659.375 Q710.2662,659.375 710.9068,659.5313 Q711.5631,659.6875 712.1256,659.9844 L712.1256,662.7031 Q711.5006,662.125 710.9068,661.8594 Q710.3131,661.5781 709.6881,661.5781 Q708.3443,661.5781 707.6568,662.6563 Q706.9693,663.7188 706.9693,665.8125 Q706.9693,667.9063 707.6568,668.9844 Q708.3443,670.0469 709.6881,670.0469 Q710.3131,670.0469 710.9068,669.7813 Q711.5006,669.5 712.1256,668.9219 L712.1256,671.6406 Z " fill="#000000"/><text fill="#000000" font-family="sans-serif" font-size="14" lengthAdjust="spacing" textLength="130.4775" x="729.6361" y="670.8467">PagoTransferencia</text><line style="stroke:#181818;stroke-width:0.5;" x1="666" x2="891.2705" y1="682" y2="682"/><rect fill="none" height="6" style="stroke:#C82930;stroke-width:1;" width="6" x="673" y="692.6484"/><text fill="#000000" font-family="sans-serif" font-size="14" lengthAdjust="spacing" textLength="93.5498" x="685" y="698.9951">banco: String</text><rect fill="none" height="6" style="stroke:#C82930;stroke-width:1;" width="6" x="673" y="708.9453"/><text fill="#000000" font-family="sans-serif" font-size="14" lengthAdjust="spacing" textLength="201.2705" x="685" y="715.292">numeroTransferencia: String</text><line style="stroke:#181818;stroke-width:0.5;" x1="666" x2="891.2705" y1="722.5938" y2="722.5938"/><ellipse cx="676" cy="736.2422" fill="#84BE84" rx="3" ry="3" style="stroke:#038048;stroke-width:1;"/><text fill="#000000" font-family="sans-serif" font-size="14" lengthAdjust="spacing" textLength="171.6846" x="685" y="739.5889">procesarPago(): boolean</text></g><!--reverse link Cliente to Pedido--><g class="link" data-entity-1="Cliente" data-entity-2="Pedido" data-source-line="56" data-uid="lnk10" id="link_Cliente_Pedido"><path codeLine="56" d="M249.1703,131.3458 C244.7403,140.8958 245.95,140.07 243.5,150 C239.71,165.35 240.62,181.46 244.13,197" fill="none" id="Cliente-backto-Pedido" style="stroke:#181818;stroke-width:1;"/><polygon fill="none" points="254.22,120.46,248.0666,124.2197,249.1703,131.3458,255.3238,127.5861,254.22,120.46" style="stroke:#181818;stroke-width:1;"/><text fill="#000000" font-family="sans-serif" font-size="13" lengthAdjust="spacing" textLength="43.3228" x="244.5" y="163.0669">realiza</text><text fill="#000000" font-family="sans-serif" font-size="13" lengthAdjust="spacing" textLength="8.271" x="241.5669" y="140.3796">1</text><text fill="#000000" font-family="sans-serif" font-size="13" lengthAdjust="spacing" textLength="23.0356" x="216.4877" y="186.0655">0..*</text></g><!--link Pedido to Cliente--><g class="link" data-entity-1="Pedido" data-entity-2="Cliente" data-source-line="57" data-uid="lnk11" id="link_Pedido_Cliente"><path codeLine="57" d="M292.46,196.77 C292.77,181.19 292.85,165.12 292.5,150 C292.27,140.34 292.1693,136.0744 291.7393,126.1344" fill="none" id="Pedido-to-Cliente" style="stroke:#181818;stroke-width:1;"/><polygon fill="#181818" points="291.48,120.14,287.8727,129.3045,291.6961,125.1353,295.8652,128.9587,291.48,120.14" style="stroke:#181818;stroke-width:1;"/><text fill="#000000" font-family="sans-serif" font-size="13" lengthAdjust="spacing" textLength="78.1714" x="294.5" y="163.0669">pertenece a</text><text fill="#000000" font-family="sans-serif" font-size="13" lengthAdjust="spacing" textLength="23.0356" x="268.82" y="185.8164">0..*</text><text fill="#000000" font-family="sans-serif" font-size="13" lengthAdjust="spacing" textLength="8.271" x="283.3622" y="140.4213">1</text></g><!--reverse link Pedido to DetallePedido--><g class="link" data-entity-1="Pedido" data-entity-2="DetallePedido" data-source-line="58" data-uid="lnk12" id="link_Pedido_DetallePedido"><path codeLine="58" d="M288.5,387.1 C288.5,416.01 288.5,435.04 288.5,459.78" fill="none" id="Pedido-backto-DetallePedido" style="stroke:#181818;stroke-width:1;"/><polygon fill="#181818" points="288.5,375.1,284.5,381.1,288.5,387.1,292.5,381.1,288.5,375.1" style="stroke:#181818;stroke-width:1;"/><text fill="#000000" font-family="sans-serif" font-size="13" lengthAdjust="spacing" textLength="56.2847" x="289.5" y="418.0669">contiene</text><text fill="#000000" font-family="sans-serif" font-size="13" lengthAdjust="spacing" textLength="8.271" x="280.1502" y="395.4581">1</text><text fill="#000000" font-family="sans-serif" font-size="13" lengthAdjust="spacing" textLength="23.0356" x="263.8728" y="448.958">1..*</text></g><!--link DetallePedido to Producto--><g class="link" data-entity-1="DetallePedido" data-entity-2="Producto" data-source-line="59" data-uid="lnk13" id="link_DetallePedido_Producto"><path codeLine="59" d="M288.5,557.43 C288.5,583.21 288.5,609.14 288.5,635.99" fill="none" id="DetallePedido-to-Producto" style="stroke:#181818;stroke-width:1;"/><polygon fill="#181818" points="288.5,641.99,292.5,632.99,288.5,636.99,284.5,632.99,288.5,641.99" style="stroke:#181818;stroke-width:1;"/><text fill="#000000" font-family="sans-serif" font-size="13" lengthAdjust="spacing" textLength="93.355" x="289.5" y="608.0669">corresponde a</text><text fill="#000000" font-family="sans-serif" font-size="13" lengthAdjust="spacing" textLength="23.0356" x="263.9451" y="577.0959">0..*</text><text fill="#000000" font-family="sans-serif" font-size="13" lengthAdjust="spacing" textLength="8.271" x="280.0361" y="630.8521">1</text></g><!--link Pedido to Pago--><g class="link" data-entity-1="Pedido" data-entity-2="Pago" data-source-line="60" data-uid="lnk14" id="link_Pedido_Pago"><path codeLine="60" d="M389.98,375.1 C423.28,404.01 454.4983,431.1076 483.0083,455.8476" fill="none" id="Pedido-to-Pago" style="stroke:#181818;stroke-width:1;"/><polygon fill="#181818" points="487.54,459.78,483.3641,450.8602,483.7636,456.503,478.1209,456.9025,487.54,459.78" style="stroke:#181818;stroke-width:1;"/><text fill="#000000" font-family="sans-serif" font-size="13" lengthAdjust="spacing" textLength="78.8125" x="439.5" y="418.0669">se paga con</text><text fill="#000000" font-family="sans-serif" font-size="13" lengthAdjust="spacing" textLength="8.271" x="390.3511" y="395.4581">1</text><text fill="#000000" font-family="sans-serif" font-size="13" lengthAdjust="spacing" textLength="24.8066" x="454.2026" y="448.958">0..1</text></g><!--link Pedido to EstadoPedido--><g class="link" data-entity-1="Pedido" data-entity-2="EstadoPedido" data-source-line="61" data-uid="lnk15" id="link_Pedido_EstadoPedido"><path codeLine="61" d="M201.4,375.1 C175.78,401.01 152.6978,424.3527 129.6978,447.6227" fill="none" id="Pedido-to-EstadoPedido" style="stroke:#181818;stroke-width:1;"/><polygon fill="#181818" points="125.48,451.89,134.6516,448.3009,128.9948,448.3339,128.9618,442.6771,125.48,451.89" style="stroke:#181818;stroke-width:1;"/></g><!--reverse link Pago to PagoTarjeta--><g class="link" data-entity-1="Pago" data-entity-2="PagoTarjeta" data-source-line="63" data-uid="lnk16" id="link_Pago_PagoTarjeta"><path codeLine="63" d="M538.291,575.3933 C536.301,606.5033 534.9,628.6 533.03,657.9" fill="none" id="Pago-backto-PagoTarjeta" style="stroke:#181818;stroke-width:1;"/><polygon fill="none" points="539.44,557.43,532.3032,575.0103,544.2787,575.7763,539.44,557.43" style="stroke:#181818;stroke-width:1;"/></g><!--reverse link Pago to PagoTransferencia--><g class="link" data-entity-1="Pago" data-entity-2="PagoTransferencia" data-source-line="64" data-uid="lnk17" id="link_Pago_PagoTransferencia"><path codeLine="64" d="M616.4372,568.3975 C652.0772,596.7975 683.08,621.48 718.71,649.87" fill="none" id="Pago-backto-PagoTransferencia" style="stroke:#181818;stroke-width:1;"/><polygon fill="none" points="602.36,557.18,612.698,573.0899,620.1764,563.7051,602.36,557.18" style="stroke:#181818;stroke-width:1;"/></g><!--SRC=[ZPHDRzim38Rl_XL4Jbat5-rL60PaYL4KAB80pNQdPTRJ84i1BVUmhlzzj6Mdbf53SZ0aVZtKIodQOjl2rXfoWU0j0_dbfb9WN8WRvvkIIS5pOEFgQDEUcNnY-yo4rln5Fb1bAh_-f22kilSiqmFbmBxgTF1NOqvCsWZckwbtichGHbHDuJ2uUihCAIHoNGD56x3o4J_23iL-zrZiZqNSRHuskn_3ijZ_UfpMsyr-Mpprku-UvqNIZbz8_qO5JrwZtM6WesaeUcZWgwIFs3dMJBLeD2gnFeqBTHRd2sXqmLGOKNB0Ls-gc2qWtLdaemze5sSVPr2RDh00i9RYyf72yasga7iroEj5PQV9pgnd0NOaB4kf3acByrdzT2OWNvhPrFjpLuOBxGiFoxvr7M1KNlg-g7lZNRW0U9lotq5KrTIEAWYdzDuIkjbKnN54_YDdcn2T3QRnxRR3m8kRVLqvHjU-49FJvboq55dJOhdSJ-8q-chQz4nNzolmUGwhkzlRczLqHnMCJp0R3QCxpxyD6LEsWXDn84UQu2DM0cxwalT3JZfr1LeqbspAKiU2S7xWVOByGxGdxwe5P8YLj3wydx22ba1kAlQCAR0FIXvFDiH-_ISTpcQtjCv5pVu3]--></g></svg>