<svg xmlns="http://www.w3.org/2000/svg" xmlns:xlink="http://www.w3.org/1999/xlink" contentStyleType="text/css" data-diagram-type="CLASS" height="469px" preserveAspectRatio="none" style="width:568px;height:469px;background:#FFFFFF;" version="1.1" viewBox="0 0 568 469" width="568px" zoomAndPan="magnify"><title>Caso 1 - Configuraci&#243;n de aplicaci&#243;n</title><defs/><g><g class="title" data-source-line="1"><text fill="#000000" font-family="sans-serif" font-size="14" font-weight="bold" lengthAdjust="spacing" textLength="286.3779" x="133.9634" y="22.9951">Caso 1 - Configuraci&#243;n de aplicaci&#243;n</text></g><!--class ConfiguracionAplicacion--><g class="entity" data-entity="ConfiguracionAplicacion" data-source-line="6" data-uid="ent0002" id="entity_ConfiguracionAplicacion"><rect fill="#F1F1F1" height="154.0469" rx="2.5" ry="2.5" style="stroke:#181818;stroke-width:0.5;" width="335.1689" x="112" y="168.2969"/><ellipse cx="190.9858" cy="188.4297" fill="#ADD1B2" rx="11" ry="11" style="stroke:#181818;stroke-width:1;"/><path d="M193.9546,194.0703 Q193.3765,194.3672 192.7358,194.5078 Q192.0952,194.6641 191.3921,194.6641 Q188.8921,194.6641 187.564,193.0234 Q186.2515,191.3672 186.2515,188.2422 Q186.2515,185.1172 187.564,183.4609 Q188.8921,181.8047 191.3921,181.8047 Q192.0952,181.8047 192.7358,181.9609 Q193.3921,182.1172 193.9546,182.4141 L193.9546,185.1328 Q193.3296,184.5547 192.7358,184.2891 Q192.1421,184.0078 191.5171,184.0078 Q190.1733,184.0078 189.4858,185.0859 Q188.7983,186.1484 188.7983,188.2422 Q188.7983,190.3359 189.4858,191.4141 Q190.1733,192.4766 191.5171,192.4766 Q192.1421,192.4766 192.7358,192.2109 Q193.3296,191.9297 193.9546,191.3516 L193.9546,194.0703 Z " fill="#000000"/><text fill="#000000" font-family="sans-serif" font-size="12" font-style="italic" lengthAdjust="spacing" textLength="71.3555" x="260.1567" y="184.4355">&#171;Singleton&#187;</text><text fill="#000000" font-family="sans-serif" font-size="14" lengthAdjust="spacing" textLength="168.6973" x="211.4858" y="200.2607">ConfiguracionAplicacion</text><line style="stroke:#181818;stroke-width:0.5;" x1="113" x2="446.1689" y1="208.5625" y2="208.5625"/><text fill="#000000" font-family="sans-serif" font-size="14" lengthAdjust="spacing" text-decoration="underline" textLength="250.5303" x="118" y="225.5576">-instancia : ConfiguracionAplicacion</text><text fill="#000000" font-family="sans-serif" font-size="14" lengthAdjust="spacing" textLength="245.2939" x="118" y="241.8545">-parametros : Map&lt;String, String&gt;</text><line style="stroke:#181818;stroke-width:0.5;" x1="113" x2="446.1689" y1="249.1563" y2="249.1563"/><text fill="#000000" font-family="sans-serif" font-size="14" lengthAdjust="spacing" textLength="184.6729" x="118" y="266.1514">-ConfiguracionAplicacion()</text><text fill="#000000" font-family="sans-serif" font-size="14" lengthAdjust="spacing" text-decoration="underline" textLength="323.1689" x="118" y="282.4482">+obtenerInstancia() : ConfiguracionAplicacion</text><text fill="#000000" font-family="sans-serif" font-size="14" lengthAdjust="spacing" textLength="208.3047" x="118" y="298.7451">+cargarConfiguracion() : void</text><text fill="#000000" font-family="sans-serif" font-size="14" lengthAdjust="spacing" textLength="298.7305" x="118" y="315.042">+obtenerParametro(clave : String) : String</text></g><!--class ArchivoConfiguracion--><g class="entity" data-entity="ArchivoConfiguracion" data-source-line="16" data-uid="ent0003" id="entity_ArchivoConfiguracion"><rect fill="#F1F1F1" height="80.5938" rx="2.5" ry="2.5" style="stroke:#181818;stroke-width:0.5;" width="220.6123" x="169" y="382.2969"/><ellipse cx="201.4674" cy="398.2969" fill="#ADD1B2" rx="11" ry="11" style="stroke:#181818;stroke-width:1;"/><path d="M204.4361,403.9375 Q203.858,404.2344 203.2174,404.375 Q202.5768,404.5313 201.8736,404.5313 Q199.3736,404.5313 198.0455,402.8906 Q196.733,401.2344 196.733,398.1094 Q196.733,394.9844 198.0455,393.3281 Q199.3736,391.6719 201.8736,391.6719 Q202.5768,391.6719 203.2174,391.8281 Q203.8736,391.9844 204.4361,392.2813 L204.4361,395 Q203.8111,394.4219 203.2174,394.1563 Q202.6236,393.875 201.9986,393.875 Q200.6549,393.875 199.9674,394.9531 Q199.2799,396.0156 199.2799,398.1094 Q199.2799,400.2031 199.9674,401.2813 Q200.6549,402.3438 201.9986,402.3438 Q202.6236,402.3438 203.2174,402.0781 Q203.8111,401.7969 204.4361,401.2188 L204.4361,403.9375 Z " fill="#000000"/><text fill="#000000" font-family="sans-serif" font-size="14" lengthAdjust="spacing" textLength="149.7959" x="219.349" y="403.1436">ArchivoConfiguracion</text><line style="stroke:#181818;stroke-width:0.5;" x1="170" x2="388.6123" y1="414.2969" y2="414.2969"/><text fill="#000000" font-family="sans-serif" font-size="14" lengthAdjust="spacing" textLength="89.1475" x="175" y="431.292">-ruta : String</text><line style="stroke:#181818;stroke-width:0.5;" x1="170" x2="388.6123" y1="438.5938" y2="438.5938"/><text fill="#000000" font-family="sans-serif" font-size="14" lengthAdjust="spacing" textLength="208.6123" x="175" y="455.5889">+leer() : Map&lt;String, String&gt;</text></g><!--class ModuloInterfaz--><g class="entity" data-entity="ModuloInterfaz" data-source-line="21" data-uid="ent0004" id="entity_ModuloInterfaz"><rect fill="#F1F1F1" height="64.2969" rx="2.5" ry="2.5" style="stroke:#181818;stroke-width:0.5;" width="136.5762" x="7" y="44.2969"/><ellipse cx="22" cy="60.2969" fill="#ADD1B2" rx="11" ry="11" style="stroke:#181818;stroke-width:1;"/><path d="M24.9688,65.9375 Q24.3906,66.2344 23.75,66.375 Q23.1094,66.5313 22.4063,66.5313 Q19.9063,66.5313 18.5781,64.8906 Q17.2656,63.2344 17.2656,60.1094 Q17.2656,56.9844 18.5781,55.3281 Q19.9063,53.6719 22.4063,53.6719 Q23.1094,53.6719 23.75,53.8281 Q24.4063,53.9844 24.9688,54.2813 L24.9688,57 Q24.3438,56.4219 23.75,56.1563 Q23.1563,55.875 22.5313,55.875 Q21.1875,55.875 20.5,56.9531 Q19.8125,58.0156 19.8125,60.1094 Q19.8125,62.2031 20.5,63.2813 Q21.1875,64.3438 22.5313,64.3438 Q23.1563,64.3438 23.75,64.0781 Q24.3438,63.7969 24.9688,63.2188 L24.9688,65.9375 Z " fill="#000000"/><text fill="#000000" font-family="sans-serif" font-size="14" lengthAdjust="spacing" textLength="104.5762" x="36" y="65.1436">ModuloInterfaz</text><line style="stroke:#181818;stroke-width:0.5;" x1="8" x2="142.5762" y1="76.2969" y2="76.2969"/><line style="stroke:#181818;stroke-width:0.5;" x1="8" x2="142.5762" y1="84.2969" y2="84.2969"/><text fill="#000000" font-family="sans-serif" font-size="14" lengthAdjust="spacing" textLength="123.4092" x="13" y="101.292">+ejecutar() : void</text></g><!--class ModuloAlmacenamiento--><g class="entity" data-entity="ModuloAlmacenamiento" data-source-line="25" data-uid="ent0005" id="entity_ModuloAlmacenamiento"><rect fill="#F1F1F1" height="64.2969" rx="2.5" ry="2.5" style="stroke:#181818;stroke-width:0.5;" width="201.374" x="179" y="44.2969"/><ellipse cx="194" cy="60.2969" fill="#ADD1B2" rx="11" ry="11" style="stroke:#181818;stroke-width:1;"/><path d="M196.9688,65.9375 Q196.3906,66.2344 195.75,66.375 Q195.1094,66.5313 194.4063,66.5313 Q191.9063,66.5313 190.5781,64.8906 Q189.2656,63.2344 189.2656,60.1094 Q189.2656,56.9844 190.5781,55.3281 Q191.9063,53.6719 194.4063,53.6719 Q195.1094,53.6719 195.75,53.8281 Q196.4063,53.9844 196.9688,54.2813 L196.9688,57 Q196.3438,56.4219 195.75,56.1563 Q195.1563,55.875 194.5313,55.875 Q193.1875,55.875 192.5,56.9531 Q191.8125,58.0156 191.8125,60.1094 Q191.8125,62.2031 192.5,63.2813 Q193.1875,64.3438 194.5313,64.3438 Q195.1563,64.3438 195.75,64.0781 Q196.3438,63.7969 196.9688,63.2188 L196.9688,65.9375 Z " fill="#000000"/><text fill="#000000" font-family="sans-serif" font-size="14" lengthAdjust="spacing" textLength="169.374" x="208" y="65.1436">ModuloAlmacenamiento</text><line style="stroke:#181818;stroke-width:0.5;" x1="180" x2="379.374" y1="76.2969" y2="76.2969"/><line style="stroke:#181818;stroke-width:0.5;" x1="180" x2="379.374" y1="84.2969" y2="84.2969"/><text fill="#000000" font-family="sans-serif" font-size="14" lengthAdjust="spacing" textLength="123.4092" x="185" y="101.292">+ejecutar() : void</text></g><!--class ModuloReportes--><g class="entity" data-entity="ModuloReportes" data-source-line="29" data-uid="ent0006" id="entity_ModuloReportes"><rect fill="#F1F1F1" height="64.2969" rx="2.5" ry="2.5" style="stroke:#181818;stroke-width:0.5;" width="145.8047" x="415.5" y="44.2969"/><ellipse cx="430.5" cy="60.2969" fill="#ADD1B2" rx="11" ry="11" style="stroke:#181818;stroke-width:1;"/><path d="M433.4688,65.9375 Q432.8906,66.2344 432.25,66.375 Q431.6094,66.5313 430.9063,66.5313 Q428.4063,66.5313 427.0781,64.8906 Q425.7656,63.2344 425.7656,60.1094 Q425.7656,56.9844 427.0781,55.3281 Q428.4063,53.6719 430.9063,53.6719 Q431.6094,53.6719 432.25,53.8281 Q432.9063,53.9844 433.4688,54.2813 L433.4688,57 Q432.8438,56.4219 432.25,56.1563 Q431.6563,55.875 431.0313,55.875 Q429.6875,55.875 429,56.9531 Q428.3125,58.0156 428.3125,60.1094 Q428.3125,62.2031 429,63.2813 Q429.6875,64.3438 431.0313,64.3438 Q431.6563,64.3438 432.25,64.0781 Q432.8438,63.7969 433.4688,63.2188 L433.4688,65.9375 Z " fill="#000000"/><text fill="#000000" font-family="sans-serif" font-size="14" lengthAdjust="spacing" textLength="113.8047" x="444.5" y="65.1436">ModuloReportes</text><line style="stroke:#181818;stroke-width:0.5;" x1="416.5" x2="560.3047" y1="76.2969" y2="76.2969"/><line style="stroke:#181818;stroke-width:0.5;" x1="416.5" x2="560.3047" y1="84.2969" y2="84.2969"/><text fill="#000000" font-family="sans-serif" font-size="14" lengthAdjust="spacing" textLength="120.9756" x="421.5" y="101.292">+generar() : void</text></g><!--link ConfiguracionAplicacion to ArchivoConfiguracion--><g class="link" data-entity-1="ConfiguracionAplicacion" data-entity-2="ArchivoConfiguracion" data-source-line="34" data-uid="lnk7" id="link_ConfiguracionAplicacion_ArchivoConfiguracion"><path codeLine="34" d="M279.5,322.3769 C279.5,342.9569 279.5,358.3969 279.5,376.1469" fill="none" id="ConfiguracionAplicacion-to-ArchivoConfiguracion" style="stroke:#181818;stroke-width:1;stroke-dasharray:7,7;"/><polygon fill="#181818" points="279.5,382.1469,283.5,373.1469,279.5,377.1469,275.5,373.1469,279.5,382.1469" style="stroke:#181818;stroke-width:1;"/><text fill="#000000" font-family="sans-serif" font-size="13" lengthAdjust="spacing" textLength="19.6079" x="259.5" y="348.3338">lee</text></g><!--link ModuloInterfaz to ConfiguracionAplicacion--><g class="link" data-entity-1="ModuloInterfaz" data-entity-2="ConfiguracionAplicacion" data-source-line="37" data-uid="lnk8" id="link_ModuloInterfaz_ConfiguracionAplicacion"><path codeLine="37" d="M128,108.4869 C128,125.4369 128,141.0169 128,161.9969" fill="none" id="ModuloInterfaz-to-ConfiguracionAplicacion" style="stroke:#181818;stroke-width:1;stroke-dasharray:7,7;"/><polygon fill="#181818" points="128,167.9969,132,158.9969,128,162.9969,124,158.9969,128,167.9969" style="stroke:#181818;stroke-width:1;"/><text fill="#000000" font-family="sans-serif" font-size="13" lengthAdjust="spacing" textLength="119.9009" x="8" y="134.3038">obtenerInstancia()</text></g><!--link ModuloAlmacenamiento to ConfiguracionAplicacion--><g class="link" data-entity-1="ModuloAlmacenamiento" data-entity-2="ConfiguracionAplicacion" data-source-line="38" data-uid="lnk9" id="link_ModuloAlmacenamiento_ConfiguracionAplicacion"><path codeLine="38" d="M279.5,108.4869 C279.5,125.4369 279.5,141.0169 279.5,161.9969" fill="none" id="ModuloAlmacenamiento-to-ConfiguracionAplicacion" style="stroke:#181818;stroke-width:1;stroke-dasharray:7,7;"/><polygon fill="#181818" points="279.5,167.9969,283.5,158.9969,279.5,162.9969,275.5,158.9969,279.5,167.9969" style="stroke:#181818;stroke-width:1;"/><text fill="#000000" font-family="sans-serif" font-size="13" lengthAdjust="spacing" textLength="119.9009" x="159.5" y="134.3038">obtenerInstancia()</text></g><!--link ModuloReportes to ConfiguracionAplicacion--><g class="link" data-entity-1="ModuloReportes" data-entity-2="ConfiguracionAplicacion" data-source-line="39" data-uid="lnk10" id="link_ModuloReportes_ConfiguracionAplicacion"><path codeLine="39" d="M431.25,108.4869 C431.25,125.4369 431.25,141.0169 431.25,161.9969" fill="none" id="ModuloReportes-to-ConfiguracionAplicacion" style="stroke:#181818;stroke-width:1;stroke-dasharray:7,7;"/><polygon fill="#181818" points="431.25,167.9969,435.25,158.9969,431.25,162.9969,427.25,158.9969,431.25,167.9969" style="stroke:#181818;stroke-width:1;"/><text fill="#000000" font-family="sans-serif" font-size="13" lengthAdjust="spacing" textLength="119.9009" x="311.25" y="134.3038">obtenerInstancia()</text></g><!--SRC=[dL9BRi8m4Dtx5BChY8BQBKAH42ka8bNb18Cp1BVEEB8Tf88uJC_04RXOdG_XeqJzP1DRVZ-z6Q-y9fYXC_0CGvWPNgiajoZLwSWG4s2cbQokGhWFnHbQJ45gT6xglLMhtDDS6bwg7S7J5KGh9l-P4HZhDqQ8adBjO7XQYnk6oMIfED7a3KSHx0M4RmXxvz4hUG35uSHI8Oox96fAQKxU6XUW2ymcon2IaqUe_f6eSHqglNxvFhXOcvKd9Zi_9-ZrVyWm08asGNk3ALbRe-8QKgk-djFsGZrR2fWgPhyvYSEvkgcL6xKrDx9DKpRtUE5K7fh8bhvjDJIo2nFdsipPartZhXOS0BsJ39hs4loECTKfIc9C5R4tl-UzKHOsWbp3I8eYxWWFy88WRxSnTmYa0QiQoa7NJOCEqmxtqrSrUT6rPQDHr5xZk2Yhj0rAwUbO17M0Kb9C3AYXsKvnrrSXsMKtRbaUqThUFrMQBl_C_mO0]--></g></svg>